<?xml version="1.0" encoding="UTF-8" standalone="no"?>
<!-- Created with Inkscape (http://www.inkscape.org/) -->

<svg
   width="512"
   height="512"
   viewBox="0 0 135.46666 135.46667"
   version="1.1"
   id="svg5"
   inkscape:version="1.2.2 (732a01da63, 2022-12-09, custom)"
   sodipodi:docname="js-ico.svg"
   xmlns:inkscape="http://www.inkscape.org/namespaces/inkscape"
   xmlns:sodipodi="http://sodipodi.sourceforge.net/DTD/sodipodi-0.dtd"
   xmlns="http://www.w3.org/2000/svg"
   xmlns:svg="http://www.w3.org/2000/svg">
  <sodipodi:namedview
     id="namedview7"
     pagecolor="#505050"
     bordercolor="#eeeeee"
     borderopacity="1"
     inkscape:showpageshadow="0"
     inkscape:pageopacity="0"
     inkscape:pagecheckerboard="0"
     inkscape:deskcolor="#505050"
     inkscape:document-units="mm"
     showgrid="false"
     inkscape:zoom="0.70199214"
     inkscape:cx="410.97326"
     inkscape:cy="460.83137"
     inkscape:window-width="1846"
     inkscape:window-height="1016"
     inkscape:window-x="0"
     inkscape:window-y="0"
     inkscape:window-maximized="1"
     inkscape:current-layer="layer1" />
  <defs
     id="defs2" />
  <g
     inkscape:label="Layer 1"
     inkscape:groupmode="layer"
     id="layer1">
    <ellipse
       style="fill:#000000;fill-opacity:0.498349;stroke-width:0.263716"
       id="path111"
       cx="67.428925"
       cy="67.405357"
       rx="66.485207"
       ry="66.667763" />
    <circle
       id="path619"
       style="fill:#000000;stroke:#000000;stroke-width:0.264583"
       cx="53.395161"
       cy="100.46246"
       r="0.050203186" />
    <path
       style="fill:#008000;fill-opacity:0.498349;stroke-width:0.264583"
       id="path1240"
       d="m 52.288476,37.767929 c 0.164132,-0.357151 0.366631,-0.77389 0.70198,-1.008703 0.08463,-0.05926 0.185393,-0.106807 0.288507,-0.113287 0.07486,-0.0047 0.273412,0.12132 0.209542,0.08199 -1.665888,-1.025721 -3.345696,-2.028664 -5.018546,-3.042994 0.661718,0.307784 -0.974769,1.286335 -1.184256,1.38548 -0.203229,0.09618 -0.422362,0.154347 -0.633545,0.231521 -0.03712,0.01135 -0.788654,0.257236 -0.925422,0.251058 -0.119616,-0.0054 -0.22674,-0.07705 -0.340109,-0.115576 1.569545,0.975337 3.121054,1.980317 4.708639,2.926009 0.10837,0.06456 -0.203563,-0.162467 -0.259302,-0.275627 -0.0562,-0.114086 -0.04127,-0.250981 -0.0619,-0.37647 0.03184,-0.404757 0.0016,-0.900539 0.310883,-1.220531 0.250097,-0.258686 0.419333,0.04261 0.35982,0.0065 -1.277083,-0.774766 -2.547366,-1.560687 -3.821046,-2.34103 0.476141,0.297574 0.952283,0.595148 1.428427,0.892722 0,0 1.68461,0.870509 1.68461,0.870509 v 0 c 0.374449,0.06621 0.748895,0.132416 1.123344,0.198622 -3.383635,-2.16659 -4.040717,-4.149309 -5.975302,-1.245885 -0.675857,2.791978 1.584877,2.314789 5.189323,4.475718 0.156953,0.0941 1.172151,0.06814 1.268484,0.05096 0.223083,-0.0398 0.427463,-0.150595 0.641193,-0.22589 1.0248,-0.693328 2.187597,-1.578086 2.166173,-2.936944 -6.446252,-3.954735 -3.759279,-3.936905 -7.684333,-2.483887 0,0 5.822841,4.015732 5.822841,4.015732 z" />
    <path
       style="fill:#008000;fill-opacity:0.498349;stroke-width:0.264583"
       id="path1242"
       d="m 50.634169,35.821942 c -0.801613,0.08281 -1.663226,0.02191 -2.402091,-0.331189 -0.159078,-0.07602 -0.59917,-0.371417 -0.444881,-0.286092 0.511492,0.282867 1.011468,0.586074 1.517203,0.879108 -0.07551,-0.200859 -0.188124,-0.278683 0.121081,-0.345562 0.389147,-0.08417 0.747765,0.02125 1.10681,0.180673 0.248807,0.110475 0.938816,0.551334 0.708618,0.406009 -0.510389,-0.322207 -1.033026,-0.624589 -1.54954,-0.936882 0.649573,0.567195 0.274373,1.53846 -0.566486,1.213755 -0.934141,-1.178248 0.08816,0.160142 2.858722,1.679855 0.08903,0.04884 -0.09414,-0.186197 -0.100605,-0.287533 -0.02257,-0.353592 0.196876,-0.648422 0.420486,-0.885208 0.106839,0.01286 0.226481,-0.01373 0.320519,0.03859 0.112064,0.06234 0.370298,0.348552 0.259453,0.284062 -1.197724,-0.696849 -2.325751,-1.510641 -3.533936,-2.189186 -0.05317,-0.02986 -0.02212,0.1221 -0.05149,0.175527 -0.175517,0.319135 -0.255056,0.323551 -0.55984,0.55639 -0.492408,0.181792 -1.055145,0.247226 -1.57892,0.179697 -0.09957,-0.01283 -0.371723,-0.145188 -0.28703,-0.09128 2.266735,1.442847 6.453301,3.954441 4.551706,2.813129 -0.30561,-0.533363 0.206507,-0.892773 0.676034,-0.517689 0.102936,0.08223 0.17457,0.197374 0.261856,0.296061 -1.514578,-0.958466 -3.029157,-1.916935 -4.543735,-2.875402 0.0568,0.216927 0.118856,0.306885 0.01185,0.533707 -0.08996,0.190691 -0.294918,0.335082 -0.497478,0.360715 0.541396,-2.143337 -0.06618,-0.01868 5.080201,2.981158 0.105384,0.06143 -0.10056,-0.223105 -0.135054,-0.340104 -0.133024,-0.451217 -0.186539,-0.933058 -0.25859,-1.396669 0.0388,-0.05719 0.0543,-0.141263 0.116408,-0.171582 0.03637,-0.01775 0.138134,0.08431 0.102802,0.06458 -2.477125,-1.38335 -5.183648,-4.532812 -4.832927,-2.450883 0.01497,0.02405 0.02357,0.05354 0.04495,0.07213 0.02811,0.02445 0.36635,-0.258961 0.451138,-0.19222 1.399749,1.101849 2.742904,2.273758 4.114355,3.410635 1.40489,1.235337 0.06547,0.03783 -3.74438,-2.326994 -0.05725,-0.03554 0.104365,0.08859 0.140165,0.145674 0.108046,0.172278 -0.03388,0.194791 -0.155246,0.176406 -1.569374,-1.215729 -3.833911,-2.232909 3.557516,2.187646 0.132458,0.07922 -0.213009,-0.226388 -0.293683,-0.357965 -0.07258,-0.118378 -0.107513,-0.256054 -0.161271,-0.384077 0.04327,-0.725538 0.790138,-1.129372 1.469623,-0.908651 0.135958,0.04416 0.248644,0.141126 0.372964,0.21169 -1.284991,-0.79335 -2.569982,-1.586698 -3.854976,-2.380048 0.03432,0.06617 0.105415,0.124002 0.102952,0.198498 -0.01206,0.364808 -0.685925,0.655376 -0.947124,0.715108 -0.222414,0.05086 -0.455178,0.03214 -0.682768,0.04821 -0.185899,0.0019 -0.373745,0.03228 -0.557694,0.0054 -0.161565,-0.02363 -0.309806,-0.103288 -0.464709,-0.15493 1.413209,0.87517 2.798967,1.796309 4.239628,2.625516 0.142521,0.08203 -0.234947,-0.233738 -0.324159,-0.371877 -0.257482,-0.398687 -0.226471,-0.48755 -0.290164,-0.923682 0.06405,-0.219289 0.03559,-0.439226 0.354846,-0.415697 0.231132,0.01704 0.724972,0.573273 0.525513,0.455247 -4.361463,-2.580777 -4.845764,-4.405325 -4.275918,-2.496695 -0.03981,0.234939 -0.172942,0.477128 -0.435597,0.5193 -0.11218,0.01802 -0.372776,-0.259501 -0.275878,-0.200173 1.536843,0.940988 3.046801,1.925196 4.570201,2.887792 -0.312116,-0.169659 -0.514342,-0.457179 -0.7615,-0.698103 -0.182674,-0.178067 0.346538,0.380627 0.26375,0.332592 -1.435881,-0.833144 -2.832743,-1.73178 -4.249116,-2.597671 0.709438,0.686734 1.551874,1.217125 2.356858,1.78594 0,0 0.438698,0.295904 0.438698,0.295904 v 0 c 2.64e-4,1.41e-4 3.115577,1.80172 2.11891,0.115835 -1.560915,-0.963147 -3.07395,-2.008598 -4.682747,-2.889443 -0.07982,-0.04371 -0.720124,0.784071 -0.726178,1.001093 -0.0026,0.09389 0.03737,0.184105 0.05606,0.276156 1.694035,1.102448 3.350519,2.264866 5.082104,3.307345 0.126902,0.0764 0.297571,0.04225 0.443944,0.01955 0.74535,-0.115613 0.852736,-0.802593 0.827871,-1.434777 -0.451557,-2.386296 -0.0076,-0.676445 -4.859116,-3.859687 -0.193915,-0.127235 -0.601887,0.09748 -0.720508,0.198737 -0.230145,0.196456 -0.388837,0.543671 -0.528611,0.7981 -0.09978,0.362757 -0.220858,0.652034 -0.15518,1.04122 0.364844,2.161997 3.435667,2.749608 5.327324,3.858204 0.206931,0.121269 0.468948,0.118615 0.708729,0.12428 0.233767,0.0055 0.463706,-0.06074 0.695558,-0.0911 0.209187,-0.155596 0.803934,-0.581112 0.97101,-0.775671 1.959184,-2.281457 -2.83646,-3.806412 -3.981259,-4.456787 -1.010786,-0.04618 -2.067322,0.44477 -2.577249,1.335585 -0.04134,0.155313 -0.117639,0.305345 -0.124012,0.465939 -0.006,0.151064 -0.03185,0.352626 0.08786,0.444958 1.569961,1.210881 3.240008,2.286765 4.886349,3.391556 0.206719,0.138724 0.67741,0.316106 0.945899,0.235918 0.125044,-0.03735 0.197286,-0.170883 0.295928,-0.256325 0.06704,-0.112641 0.167688,-0.211175 0.201123,-0.337921 0.07713,-0.29237 -0.07422,-0.916196 -0.338434,-1.099219 -1.437801,-0.996003 -2.91003,-1.942351 -4.393808,-2.868478 -0.06612,-0.04127 -0.155361,-0.01296 -0.233042,-0.01945 0.56407,0.50989 3.255025,4.30175 4.407405,3.157387 0.04627,-0.04594 0.136263,-0.254378 0.165285,-0.317614 -0.131527,-2.174099 -5.314053,-6.016156 -5.416246,-3.210438 -1.880766,2.842895 1.538259,5.801945 5.327013,5.401874 0.113006,-0.07763 0.253698,-0.125564 0.339018,-0.232881 1.485943,-1.868999 -4.203406,-8.367443 -5.006805,-5.505501 -0.12954,-0.02455 -0.256932,-0.0802 -0.38862,-0.07369 -0.70294,0.03476 -1.269011,0.808516 -1.517325,1.378682 0.166442,2.487579 -0.07396,0.648388 5.332439,3.725519 0.214246,0.121941 0.791432,-0.03087 0.962583,-0.16913 0.149442,-0.120718 0.459915,-0.759624 0.535681,-0.904713 0.0991,-0.19803 0.640247,-1.298004 0.386128,-1.508556 -2.571957,-2.131023 -3.019833,-3.873903 -4.098801,-2.209912 -1.788538,2.012413 -0.235508,3.128532 2.973975,4.020291 0.122028,-0.03523 0.260932,-0.03446 0.366091,-0.105701 0.804891,-0.545245 -0.171995,-2.096963 -0.612839,-2.554835 -0.514591,-0.339572 -3.732191,-3.237664 -4.690938,-1.305026 1.662136,1.202651 2.83678,2.402661 4.971425,1.942524 0,0 -1.664118,-1.25652 -1.664118,-1.25652 z" />
    <path
       style="fill:#008000;fill-opacity:0.498349;stroke-width:0.264583"
       id="path1244"
       d="m 48.056485,49.058004 c 0.217299,0.95898 0.400867,1.923592 0.518678,2.899868 0.135491,0.882856 -0.0075,1.763926 -0.09956,2.642211 -0.06598,1.011544 -0.206843,2.012926 -0.411289,3.0051 -0.278019,1.190096 -0.543079,2.381517 -0.753621,3.58548 -0.233124,1.226405 -0.34684,2.467263 -0.434954,3.710771 -0.07635,1.166624 -0.211079,2.32864 -0.375647,3.485835 -0.169453,1.119666 -0.374957,2.235279 -0.651196,3.333731 -0.270565,0.879848 -0.517577,1.763863 -0.722717,2.661222 -0.190881,0.763542 -0.373621,1.526616 -0.514929,2.300996 -0.145529,0.706827 -0.279982,1.415532 -0.387948,2.129123 -0.09926,0.681358 -0.114612,1.370743 -0.127982,2.057993 -0.05736,0.258225 0.009,0.303257 -0.315156,0.31084 -0.102343,0.0024 -0.213182,-0.0031 -0.302477,-0.05318 -0.04816,-0.027 -0.115704,-0.173186 -0.06448,-0.152577 2.23983,0.901136 1.759863,1.675722 2.226913,0.533037 0.458989,-1.922896 0.868905,-3.849939 1.422667,-5.751981 0.66125,-2.481651 1.28987,-4.968877 1.824813,-7.480845 0.471916,-2.252265 0.640644,-4.551529 1.034635,-6.816285 0.180797,-1.825924 0.492696,-3.630271 0.852969,-5.42766 0.299138,-1.40108 0.710969,-2.772987 1.059741,-4.159906 0.106132,-0.711404 0.317018,-1.421337 0.368352,-2.141866 -0.502827,-2.785893 7.18044,3.268194 -6.000027,-3.534436 0.143936,1.343255 0.249515,2.687685 0.310115,4.037377 -0.0011,1.483088 -0.07482,2.977566 -0.35601,4.437624 -0.123023,0.638804 -0.448519,1.771226 -0.620236,2.394336 -0.690311,2.328672 -1.453176,4.628798 -1.906169,7.01847 -0.412354,1.855568 -0.610677,3.744883 -0.759836,5.636725 -0.105193,1.718596 -0.323779,3.420917 -0.133152,5.138852 0.01249,0.277394 0.0449,0.554603 0.0375,0.832178 -0.01429,0.536024 -0.470323,2.170273 -0.334436,2.573014 0.102486,0.30375 0.339315,0.543999 0.508974,0.816002 0.51341,0.795895 0.362307,0.420312 0.555167,1.080206 0,0 0.447826,0.281906 0.447826,0.281906 v 0 c 0.564687,-0.188389 0.233209,-0.114448 1.008086,-0.147892 0.245565,-0.02751 0.527225,0.04853 0.736698,-0.08254 0.149828,-0.09375 0.137115,-0.326541 0.187698,-0.49589 0.254368,-0.851596 0.323908,-1.762771 0.731599,-2.567303 0.724874,-1.40241 0.971685,-2.942804 1.251887,-4.483703 0.379457,-1.811351 0.673661,-3.63592 0.969973,-5.462109 0.572035,-2.340652 1.26573,-4.645371 1.97903,-6.9465 0.551405,-2.289077 1.025197,-4.616947 1.043599,-6.980983 0.02853,-1.24713 0.0362,-2.497199 0.155631,-3.73974 -15.578881,-9.381771 -5.221526,-5.238763 -6.006254,-3.40504 -0.06626,0.706753 -0.07464,1.409997 -0.249734,2.104123 -0.254098,1.415788 -0.590029,2.800398 -1.012146,4.17694 -0.469233,1.807803 -0.66594,3.660431 -0.852961,5.515853 -0.158123,2.393604 -0.418507,4.78249 -0.413303,7.185525 -0.05512,2.777202 -0.05261,5.558462 -0.326083,8.326015 -0.148944,2.168302 -0.447529,4.366466 -0.189645,6.533673 0.326075,1.432976 0.01693,0.656926 2.201233,2.283405 0.04531,0.03374 -0.0068,-0.118489 -0.03892,-0.16496 -0.219805,-0.317926 -0.601488,-0.511204 -0.574932,-0.957646 0.01283,-0.685179 0.02694,-1.372542 0.12451,-2.052024 0.107061,-0.713219 0.24116,-1.421503 0.38712,-2.127726 0.140804,-0.77375 0.321988,-1.536359 0.513726,-2.298983 0.204803,-0.897059 0.450143,-1.781125 0.722111,-2.660214 0.277731,-1.099888 0.483677,-2.217221 0.654048,-3.338512 0.165462,-1.158216 0.300691,-2.321354 0.377544,-3.489079 0.08767,-1.241877 0.199223,-2.481297 0.432213,-3.706101 0.20991,-1.203568 0.473964,-2.394667 0.752787,-3.58408 0.205745,-0.993547 0.348919,-1.996334 0.413967,-3.009633 0.09202,-0.881605 0.239006,-1.766054 0.105407,-2.652479 -0.116046,-0.977964 -0.298603,-1.944135 -0.516093,-2.904583 0,0 -0.465325,-0.251973 -0.465325,-0.251973 z" />
    <path
       style="fill:#008000;fill-opacity:0.498349;stroke-width:0.264583"
       id="path1246"
       d="m 43.545196,78.805774 c -0.432713,0.991442 -0.87938,1.979986 -1.338358,2.960407 -0.325033,0.98257 -0.818703,1.888334 -1.328452,2.783639 -0.311771,0.32866 -0.630137,1.168625 -1.023799,1.380792 -0.746139,0.402132 -0.512226,-0.242686 -0.627153,0.592844 -0.415348,0.409784 -0.884047,0.357769 -1.416539,0.418682 -0.519478,0.05943 -1.039945,0.1945 -1.558192,0.271296 -1.648564,0.390805 -3.23079,-0.247947 -4.734545,-0.873718 -1.471916,-0.547502 -2.8772,-1.239367 -4.169137,-2.130441 -3.273937,-2.222719 0.0086,0.01119 7.900649,5.08866 0.124701,0.08023 -0.24425,-0.168304 -0.363363,-0.256614 -0.229706,-0.170302 -0.458613,-0.340683 -0.63346,-0.567449 -0.392758,-0.321996 -0.815274,-0.611333 -1.166662,-0.979866 -3.381817,-3.132934 -9.757607,-12.000148 -12.140492,-7.486923 -0.203079,0.360662 -0.466233,0.693566 -0.609237,1.081982 -0.234882,0.637963 1.025182,1.344041 1.393649,1.583629 3.741616,2.432915 7.497495,4.843828 11.246241,7.265744 1.767059,0.89875 3.701595,1.382062 5.64855,1.69367 1.91738,0.372842 3.812534,0.0062 5.696542,-0.352124 1.91783,-0.543811 3.559363,-1.636104 5.156499,-2.789261 2.140458,-1.570482 3.014946,-3.203337 3.695235,-5.705332 0.221448,-1.004538 0.43044,-2.025536 0.48909,-3.055737 0.04811,-0.844978 -0.01823,-1.690301 0.02556,-2.536621 -0.100375,-1.210707 -0.07352,-2.428512 -0.140775,-3.642894 -0.0026,-0.617625 -0.147624,-1.235715 -0.305027,-1.83278 -0.03974,-0.154929 -0.02119,-0.410876 -0.115943,-0.524504 -0.304581,-0.556348 0.213593,-1.344443 0.417406,-1.864659 0.44091,-1.453417 0.938758,-2.886573 1.408518,-4.331438 0.576273,-1.204857 0.524118,-2.563474 0.722654,-3.854389 0.401415,-1.272884 0.218895,-2.62291 0.353171,-3.925896 -0.0314,-1.215279 0.375248,-2.369968 0.446505,-3.572168 0.07217,-0.749041 0.09566,-1.517719 0.01283,-2.270824 -0.01077,-0.258 -0.06688,-0.490236 0.217107,-0.57609 -2.986561,-2.880993 -15.345436,-13.787419 -14.696128,-7.286906 0.01894,0.189527 0.124455,0.392301 0.05318,0.568934 -0.08435,0.209036 -0.491437,0.255013 -0.476419,0.479927 0.03191,0.478023 0.397192,0.871972 0.595788,1.30796 0.01162,0.405019 0.02326,0.810038 0.03489,1.215057 -0.210928,0.344919 -0.58833,0.632904 -0.632785,1.034751 -0.06627,0.599061 0.306866,1.176803 0.321469,1.779344 0.01331,0.5485 -0.141828,1.088549 -0.238874,1.628558 -0.173218,0.963864 -0.535297,2.443385 -0.75877,3.392292 -0.107341,0.579482 -0.209198,1.160007 -0.322027,1.738447 -0.109418,0.560977 -0.244059,1.117026 -0.344685,1.679649 -0.09668,0.540576 -0.348399,2.486972 -0.503738,3.064695 -0.576146,2.142749 -0.531979,0.210045 -0.338976,2.592036 -0.05863,1.08509 -0.28103,2.160143 -0.359085,3.242471 -0.02376,0.329592 0.01786,0.662699 -0.01818,0.99118 -0.06432,0.586732 -0.230814,1.158073 -0.321431,1.74132 -0.03609,0.962435 -0.335434,1.884268 -0.494732,2.825224 -0.05664,0.334576 -0.06925,0.675375 -0.11943,1.010983 -0.06494,0.434309 -0.267673,1.419127 -0.355671,1.858137 -0.380008,1.663631 -0.700995,3.12338 -1.662499,4.561843 -0.736854,1.128826 -1.526712,2.050306 -2.737914,2.671037 -0.28598,0.09643 -0.840208,0.310708 -1.151379,0.304385 -0.309631,-0.0063 -0.607819,-0.149897 -0.917496,-0.146312 -0.183515,0.0021 -0.344058,0.138184 -0.525899,0.163018 -0.23972,0.03274 -1.310883,-0.0024 -1.535527,-0.0076 -1.694892,-0.124569 -3.382074,-0.315455 -5.040052,-0.69323 -2.177633,-0.489586 -4.153188,-1.53242 -6.110608,-2.566618 -0.825879,-0.479706 -1.107951,-0.623173 -1.890022,-1.156245 -0.308225,-0.21009 -1.222606,-0.854628 -0.908899,-0.652815 26.615011,17.121852 19.1121,12.92664 13.703733,8.662107 -2.329669,-2.07562 -5.16779,-3.433546 -7.882844,-4.915975 0,0 -6.903435,-3.486536 -6.903435,-3.486536 v 0 c -1.067019,-0.350755 -2.117404,-0.756877 -3.201058,-1.052266 -0.320921,-0.08748 -0.697176,-0.241856 -0.993716,-0.09117 -0.4462843,0.226783 1.631565,1.364573 0.902264,1.20055 5.563728,5.26193 13.052454,8.981842 19.102846,12.907145 0.36758,0.238474 1.297638,0.678963 1.708089,0.84878 0.272023,0.112546 0.552386,0.203761 0.82858,0.305642 1.410806,0.401267 2.852496,0.543348 4.316634,0.381854 1.476841,-0.06989 2.967474,0.109175 4.427784,-0.181517 0.473048,-0.08971 0.938046,-0.220305 1.412674,-0.301236 0.282379,-0.04815 0.598969,0.03237 0.853678,-0.0987 0.181139,-0.09321 0.189653,-0.367861 0.333441,-0.512168 0.306652,-0.307755 0.788321,-0.406291 1.033656,-0.793903 1.020717,-1.019524 2.182513,-1.913832 3.003079,-3.113294 0.273227,-0.438523 0.600847,-0.970952 0.885497,-1.400675 0.476541,-0.71942 1.034359,-1.436121 1.421603,-2.209937 0.134467,-0.268701 0.221573,-0.558597 0.332362,-0.837896 0.218948,-0.571471 0.418729,-1.150385 0.648631,-1.717538 0.118367,-0.291999 0.272156,-0.56946 0.379714,-0.865608 0.328684,-0.904996 0.504709,-1.866709 0.822926,-2.775691 0.233365,-1.201425 0.144521,-0.591359 0.263528,-1.830628 0.05674,-0.30176 0.192309,-0.584745 0.25282,-0.885774 0.213016,-1.059718 0.20888,-2.163244 0.414951,-3.224763 0.70862,-1.885156 0.271214,-0.260205 0.291137,-2.588326 0.0043,-0.502817 0.08149,-1.002594 0.140671,-1.501937 0.195244,-1.647306 0.41725,-3.304757 0.85422,-4.907573 0.376547,-1.618697 0.404882,-1.794307 0.826948,-3.395496 0.140932,-0.53466 0.21468,-1.093886 0.436848,-1.600208 0.195836,-0.44631 0.726252,-0.741206 0.801814,-1.222698 0.149678,-0.953743 -0.821528,-1.917779 -0.174461,-2.890996 0.983234,-1.163116 0.60338,-0.268642 0.06441,-1.83351 -0.05929,-0.172153 -0.02138,-0.363564 -0.02785,-0.545531 -0.207283,-5.834446 -12.693547,-7.568443 -14.72116,-8.848256 0.402042,0.0408 0.255894,0.179615 0.336875,0.555585 0.05693,0.729533 0.230685,1.437095 0.26891,2.167972 -0.039,1.254935 0.03401,2.509419 -0.144024,3.757059 0.0222,1.350061 -0.18792,2.707228 -0.02122,4.056499 -0.0041,1.355326 -0.128537,2.713213 -0.03129,4.067355 -0.08975,1.54201 -0.266806,3.062121 -0.688092,4.554212 -0.202745,0.805191 -0.399259,1.604074 -0.693287,2.380838 -0.02988,0.200538 0.03279,0.400528 0.07782,0.608158 0.05267,0.58312 0.203272,1.162859 0.353809,1.72585 0.152921,1.242182 0.207836,2.489224 0.328118,3.733406 0.370395,1.917319 0.639339,3.883379 0.651282,5.835758 -0.293822,2.192417 -0.798843,3.950536 -2.242428,5.69009 -1.261054,1.317458 -2.618126,2.26854 -4.441748,2.619787 -1.807761,0.457812 -3.660905,0.345268 -5.468334,-0.09166 -2.296155,-0.673635 -4.511705,-1.554517 -6.484217,-2.939055 16.910953,10.982454 12.440445,8.041775 8.866829,5.76753 -0.08455,-0.05381 -0.157498,-0.155522 -0.257715,-0.154853 -0.470196,0.0031 -0.431522,1.701102 -0.865989,1.113507 -0.395171,5.198031 -15.496031,-10.093605 -10.37153,-6.32257 0.749225,0.528418 1.428552,1.158557 2.252959,1.580655 4.103874,2.426105 7.785141,5.553001 12.039929,7.728431 0.859131,0.295288 1.723176,0.611479 2.629808,0.307017 0.25809,-0.240802 0.328048,-0.258066 0.475593,-0.590518 0.05779,-0.130214 0.05975,-0.283128 0.129704,-0.407233 0.255286,-0.452895 0.781669,-0.537546 1.221127,-0.716989 0.354353,-0.169114 0.928031,-0.349605 1.161661,-0.695947 0.230084,-0.341082 0.157837,-0.878509 0.542226,-1.143582 0.167989,-0.06307 0.408924,-0.03703 0.503973,-0.189227 0.09796,-0.156864 -0.06908,-0.370676 -0.04024,-0.553355 0.06482,-0.410665 0.671388,-1.162267 0.661477,-1.654607 0.345715,-1.015857 0.475271,-2.091446 0.839758,-3.103499 0.274802,-1.086701 0.523896,-2.182746 0.860364,-3.251819 0,0 -0.715298,-0.444206 -0.715298,-0.444206 z" />
    <path
       style="fill:#008000;fill-opacity:0.498349;stroke-width:0.264583"
       id="path1248"
       d="m 24.016523,83.953391 c -2.418655,-1.6305 1.212125,0.825384 3.488486,2.204268 0.345805,0.209468 -0.654106,-0.475745 -0.971164,-0.726607 -1.065665,-0.843169 -2.019497,-1.768488 -2.9594,-2.746412 -0.887814,-0.959384 -0.581436,-0.59717 -1.30674,-1.481984 -0.139012,-0.169585 -0.292636,-0.328523 -0.4145,-0.51082 -0.04743,-0.07096 -0.166583,-0.207765 -0.08778,-0.240533 0.07992,-0.03323 0.09551,0.144468 0.139417,0.219056 0.08812,0.149704 0.171026,0.302416 0.256538,0.453623 0.227638,0.117827 0.455974,0.234312 0.682914,0.353476 0.736102,0.386521 2.869693,1.679257 2.167906,1.233453 -14.917998,-9.476595 -4.706861,-2.973764 -3.858208,-2.377713 0.458687,0.322159 0.890405,0.681104 1.335607,1.021654 0.786749,0.657635 1.25583,1.019868 1.966636,1.714722 0.188273,0.184047 0.674096,0.350478 0.539595,0.576816 -0.139284,0.234389 -0.537016,-0.150379 -0.808427,-0.124426 -0.07063,0.0067 0.02363,0.219909 0.08935,0.193189 0.07045,-0.02864 -0.0023,-0.15208 -0.0034,-0.228119 23.884606,11.3054 14.21205,7.49631 10.795568,4.929852 -1.456698,-1.094269 -2.846279,-2.313504 -4.143891,-3.589923 -4.08649,-3.421776 -7.474488,-6.432986 -12.857417,-8.918098 -0.582545,-0.268941 -0.736373,1.105567 -0.819317,1.74181 -0.03324,0.254987 0.345125,0.381286 0.517687,0.571929 1.425684,1.444455 2.907069,2.831793 4.313428,4.295698 -0.140373,0.225438 0.571216,0.401926 0.501934,0.673097 -0.01886,0.07381 -0.151692,0.05175 -0.225908,0.03457 -0.263047,-0.0609 -0.517996,-0.156786 -0.765729,-0.26417 -0.176973,-0.07671 -0.545539,-0.09767 -0.503128,-0.28583 0.195313,-0.866544 0.742179,-1.614114 1.113268,-2.42117 28.044033,16.474453 19.022432,12.796406 13.650641,8.738804 -1.135171,-0.857457 -2.232321,-1.752764 -3.380322,-2.594348 -3.067735,-2.398377 -6.614587,-4.082778 -10.035748,-5.898052 0,0 -2.586926,-1.217962 -2.586926,-1.217962 v 0 c -1.176288,-0.43766 -2.334627,-0.926978 -3.528863,-1.312984 -0.395089,-0.127701 -0.819997,-0.31347 -1.22539,-0.2237 -0.475707,0.105341 1.756186,1.596461 0.929633,1.127974 6.078573,5.647873 13.602359,9.716352 20.474626,14.121688 0.461814,-0.754552 1.136832,-1.414645 1.38544,-2.263653 0.06808,-0.232481 -0.395539,-0.280829 -0.604459,-0.403442 -1.102619,-0.64712 -2.231506,-1.221126 -3.12964,-2.160952 -1.619985,-1.46127 -3.262934,-2.898968 -4.789524,-4.459695 -0.877216,-0.855467 -0.310171,-0.600462 -1.67653,0.81753 -12.166816,-5.88424 -13.023002,-9.892963 -8.796674,-5.291282 1.14053,0.969383 2.258533,1.962631 3.386705,2.946317 0.312046,0.272085 0.624438,0.54382 0.932425,0.820489 0.205241,0.18437 0.36101,0.437872 0.607136,0.562526 4.070962,2.061773 8.209329,3.987662 12.313992,5.981493 -0.0222,-0.1187 0.01199,-0.264427 -0.0666,-0.356105 -0.171985,-0.200586 -0.415645,-0.328086 -0.639869,-0.467866 -0.660315,-0.411636 -1.360408,-0.758449 -2.011288,-1.184854 -1.282369,-0.840105 -2.354032,-1.990696 -3.615981,-2.85908 -0.454387,-0.353507 -0.915207,-0.698896 -1.36316,-1.060521 -0.341357,-0.275571 -0.638474,-0.60846 -1.004265,-0.850662 -2.74705,-1.818907 -5.537385,-3.571832 -8.325624,-5.326949 -0.609237,-0.383497 -1.632607,-0.952775 -2.360103,-1.182282 -0.252934,-0.0798 -0.523,-0.08856 -0.7845,-0.132837 -0.184487,0.143989 -0.435676,0.229746 -0.553461,0.431972 -0.505718,0.86827 1.526113,2.628077 1.935481,3.184797 3.197023,3.216582 6.886149,5.821135 10.899811,7.97781 0,0 -4.220253,-3.765585 -4.220253,-3.765585 z" />
    <path
       style="fill:#008000;fill-opacity:0.498349;stroke-width:0.264583"
       id="path1250"
       d="m 25.383231,86.243675 c -0.0183,-0.123619 -0.01782,-0.251518 -0.0549,-0.370861 -0.348289,-1.121217 -1.122955,-2.487309 -1.653019,-3.56085 -0.604076,1.288103 -0.148977,-0.893651 -0.183015,-0.665964 -0.05502,0.368046 -0.213977,0.795536 0.02983,1.157086 0.148081,0.219591 0.417814,0.325618 0.62672,0.488424 -2.56744,-1.654226 -5.13488,-3.308451 -7.70232,-4.962676 2.150194,1.633741 4.427187,3.152357 6.348132,5.062426 -0.09672,0.04022 -0.193447,0.08044 -0.29017,0.120661 -0.127202,0.0019 -0.259955,-0.03182 -0.381605,0.0054 -0.03394,0.01037 -0.0019,0.08742 0.03046,0.102026 4.877785,2.20168 9.745309,4.42822 14.666273,6.531623 0.300331,0.128374 -0.517218,-0.399026 -0.778235,-0.595362 C 35.7413,89.329884 35.438039,89.108417 35.136367,88.88482 30.00839,85.37595 24.690403,82.083994 19.463792,78.754361 c -0.07396,-0.04712 -0.316084,-0.138007 -0.250798,-0.07946 3.656044,3.278833 7.360094,6.503741 11.040141,9.755613 1.462744,0.468112 2.850986,1.132875 4.269626,1.712061 0.455187,0.185838 0.90447,0.395761 1.37994,0.52089 0.294957,0.07763 0.607541,0.05474 0.911312,0.08211 -0.573664,-1.718966 -0.226182,-0.797055 -1.083527,-2.749896 0,0 -1.304502,-1.05241 -1.304502,-1.05241 v 0 c -4.121787,-2.228416 -2.078582,-1.039508 -6.125299,-3.574129 -0.678829,-0.371126 -1.351061,-0.754576 -2.036481,-1.113377 -2.254219,-1.180034 -4.657351,-2.091714 -6.797761,-3.480036 3.544275,3.169301 7.087163,6.340152 10.632826,9.507903 0.05045,0.04507 0.103614,0.08699 0.155422,0.13049 -3.893313,-2.516833 -7.786625,-5.033664 -11.679936,-7.550494 -0.124759,-0.07986 0.218689,0.200512 0.33683,0.289867 0.49325,0.37307 1.025997,0.692054 1.51552,1.070279 5.739171,4.283168 2.026615,1.390602 16.858417,8.247393 0.152373,0.07044 -0.292508,-0.164796 -0.439008,-0.246753 -0.457999,-0.25622 -0.921681,-0.502491 -1.374489,-0.767776 -0.573593,-0.336052 -1.136131,-0.690623 -1.704197,-1.035933 -2.596647,-1.897153 -5.109189,-3.907079 -7.727243,-5.775698 -3.235775,-2.126025 -6.45659,-4.274998 -9.707325,-6.378078 -0.267633,-0.173146 -0.528161,-0.409855 -0.844566,-0.448524 -0.581383,-0.07105 -1.058376,0.451654 -1.111806,0.981839 -0.0095,0.09438 0.569613,1.082159 0.577498,1.096037 1.17122,2.003102 2.577353,3.882183 4.330514,5.416214 0,0 6.09832,2.931191 6.09832,2.931191 z" />
    <path
       style="fill:#008000;fill-opacity:0.498349;stroke-width:0.264583"
       id="path1252"
       d="m 36.739568,88.048123 c 0.333846,-0.08812 0.681984,-0.133581 1.001535,-0.264367 0.435573,-0.178273 2.253419,-1.268981 2.531155,-1.435563 1.382641,-0.829281 2.72678,-1.693547 4.044497,-2.621708 0.167836,-0.225682 0.377963,-0.425371 0.503508,-0.677043 0.715113,-1.433541 -3.90366,-2.612376 -4.16592,-2.693693 -0.383511,-0.118915 -0.700009,0.394575 -1.036992,0.612896 -1.315784,0.85244 -1.251496,0.868908 -2.449082,1.900471 -2.452584,2.175896 -3.506462,2.407668 1.568641,4.388387 0.291661,0.113829 0.499554,-0.377558 0.750758,-0.564431 0.323461,-0.240625 0.648811,-0.478702 0.973217,-0.718055 0.879874,-0.679265 0.978103,-0.675899 1.654283,-1.465061 1.378789,-1.609165 -0.660284,-1.71308 -3.546517,-3.34939 -0.181293,-0.102783 -1.19448,0.752904 -1.260174,0.80431 -0.294333,0.425185 -0.797226,0.58811 -1.167286,0.916371 -1.427567,1.266319 2.77286,2.69658 4.458602,3.590885 0.22828,0.121105 0.44813,-0.257477 0.671775,-0.38694 0.290068,-0.167912 0.579575,-0.336788 0.869362,-0.505182 0.665682,-0.342313 1.412143,-0.495284 2.08615,-0.816859 0.20379,-0.09723 0.388482,-0.231471 0.571222,-0.364101 0.107093,-0.07773 0.406895,-0.193476 0.295572,-0.265017 -6.697565,-4.304218 -4.55702,-5.139142 -7.762402,-3.317158 -0.935836,0.89123 -2.093468,1.43224 -3.272927,1.91621 -0.143225,0.05877 -0.564637,0.06707 -0.437611,0.155565 7.42595,5.173271 5.329209,6.682078 8.208447,3.921381 0.819084,-0.821541 1.618112,-1.660993 2.520064,-2.395839 0.483711,-0.394091 1.025056,-0.713295 1.511837,-1.103593 0.794578,-0.63709 1.449334,-1.401098 2.227574,-2.049692 -2.958086,-1.749677 -5.724728,-3.873484 -8.874254,-5.249029 -0.429133,-0.187421 -0.741524,0.575487 -1.07587,0.903348 -0.88828,0.871048 -1.57162,1.940539 -2.48766,2.782345 -2.995568,2.752818 -0.204486,-0.431684 -2.290279,2.070441 -0.163525,0.185674 -0.681061,0.399124 -0.490577,0.557022 2.509737,2.080395 5.140098,4.053213 7.980995,5.652 0.297709,0.167545 0.381093,-0.577781 0.640548,-0.800007 0.343109,-0.293878 0.802109,-0.431694 1.143262,-0.727842 0.356013,-0.30905 0.612011,-0.717376 0.926333,-1.06874 0.283051,-0.316407 0.57703,-0.622869 0.865542,-0.934304 3.100102,-3.385053 -0.152294,-2.670432 -8.015279,-6.322518 -0.35958,-0.167013 -0.641128,0.466902 -0.952993,0.711711 -1.299527,1.020117 -1.139004,0.922385 -2.360194,2.076881 -0.342037,0.356396 -0.684078,0.71279 -1.026118,1.069184 -0.313089,0.260167 -0.650107,0.493972 -0.939268,0.780499 -2.90735,2.880882 6.533399,5.62247 7.796173,6.282484 0.375743,0.19639 0.653219,-0.625615 0.728046,-1.042932 0.136914,-0.763587 -0.0829,-1.549313 -0.124349,-2.32397 0,0 -3.372884,-2.390188 -3.372884,-2.390188 v 0 c -1.094103,-0.07083 -2.187173,-0.15998 -3.282307,-0.212481 -0.435772,-0.0209 -1.631202,-0.301541 -1.308794,-0.0076 11.471572,10.457791 5.254588,7.434839 8.401773,4.33646 0.353295,-0.347819 0.776597,-0.616509 1.164894,-0.924764 0.59491,-0.439793 1.884,-1.409044 2.525046,-1.821336 0.298582,-0.192038 1.191013,-0.286182 0.92729,-0.523836 -2.401805,-2.164368 -5.246791,-3.779787 -7.842316,-5.707583 -0.05653,-0.04199 0.230553,-0.02945 0.207944,0.03724 -0.08264,0.243803 -0.291018,0.42472 -0.436526,0.63708 -1.194241,1.22609 -0.542557,0.626793 -1.969923,1.781588 -0.281837,0.280747 -0.43007,0.684982 -0.73556,0.939792 -0.157115,0.131051 -0.393851,0.111006 -0.590775,0.16651 2.563955,1.893681 5.127911,3.787362 7.691866,5.681046 0.188137,0.119616 0.265038,-0.358566 0.397558,-0.53785 1.338648,-1.275805 0.682207,-0.544084 1.919057,-2.23924 0.463362,-0.459545 1.029869,-0.802654 1.56347,-1.178359 0.514634,-0.362352 1.054571,-0.687382 1.579523,-1.034616 0.362879,-0.240033 1.395394,-0.423368 1.083935,-0.727163 -2.32818,-2.270881 -5.2109,-3.893044 -7.816353,-5.839568 0.402463,0.452787 0.299143,0.186584 -0.281845,1.031946 -0.273999,0.39868 -0.581287,0.77356 -0.861904,1.167607 -0.334877,0.470236 -0.611023,0.984604 -0.984355,1.424929 -0.822968,0.970648 -1.606722,1.512631 -2.588689,2.284783 -3.16769,2.257041 -1.472097,0.617588 5.846823,5.807152 0.08903,0.06313 0.04684,-0.218226 0.106474,-0.30964 0.386651,-0.592703 0.935426,-1.148844 1.519507,-1.53939 0.385726,-0.257916 0.822934,-0.428954 1.234401,-0.64343 2.958068,-1.79441 1.054981,-0.260713 -4.823788,-4.890217 -0.06861,-0.05403 0.261768,-0.03919 0.257548,0.04804 -0.0089,0.183915 -0.190461,0.315206 -0.282829,0.474493 -0.14137,0.243785 -0.256831,0.503732 -0.418349,0.734661 -0.18039,0.257916 -0.402286,0.484158 -0.60343,0.726239 -0.265877,0.150413 -0.513064,0.340177 -0.797634,0.451239 -0.175604,0.06853 -0.700971,-0.04653 -0.560014,0.07863 8.868145,7.873889 3.081012,4.00993 4.314356,2.274575 0.139219,-0.195881 0.354455,-0.324604 0.531683,-0.486905 0.194585,-0.116207 0.376918,-0.255963 0.583756,-0.34862 0.09061,-0.04059 0.19632,-0.02987 0.294481,-0.04481 -1.159682,-0.884936 -2.319367,-1.769869 -3.479049,-2.654803 -0.133101,-0.08242 0.01238,0.32507 -0.05485,0.466453 -0.210741,0.443134 -0.989581,1.291248 -1.268251,1.615577 -0.29862,0.235667 -0.569013,0.512358 -0.895858,0.706996 -0.242644,0.144494 -0.970047,0.07874 -0.792845,0.298633 0.770329,0.955913 1.850898,1.626764 2.881738,2.293503 0.115348,0.0746 -0.03476,-0.289234 0.0286,-0.41112 0.342067,-0.65799 1.077582,-1.243626 1.586164,-1.721506 0.981744,-0.624295 1.676763,-1.124469 2.751458,-1.580314 0.373057,-0.158237 1.377688,-0.02529 1.159115,-0.366525 -0.682561,-1.065593 -1.957832,-1.603875 -2.935726,-2.407057 -0.08554,-0.07025 0.273433,0.09856 0.258633,0.208253 -0.03359,0.248886 -0.24995,0.435674 -0.374926,0.653511 -0.248419,0.332888 -0.466391,0.690832 -0.745259,0.998664 -0.728896,0.804609 -1.59961,1.485019 -2.506261,2.074775 -2.472639,1.6084 -0.362892,0.11303 -2.591855,1.350595 -0.242007,0.134366 -0.448006,0.325231 -0.672008,0.487847 0,0 2.264723,1.680776 2.264723,1.680776 z" />
    <path
       style="fill:#008000;fill-opacity:0.498349;stroke-width:0.264583"
       id="path1254"
       d="m 15.332336,74.353596 c 0.644902,-3.043343 1.60416,-6.016709 2.462233,-9.006064 0.734084,-3.044833 1.544305,-6.075815 2.101943,-9.160277 0.269803,-1.492359 0.387073,-2.518778 0.581799,-4.005419 0.21152,-1.539483 0.192078,-3.106055 0.380717,-4.647025 0.139901,-1.142828 0.430881,-2.272012 0.722025,-3.383174 0.394018,-1.51705 0.591667,-3.07657 0.831996,-4.623435 0.141499,-0.322691 0.0043,-0.828993 0.189929,-1.139309 0.09034,-0.151014 0.371838,-0.193792 0.500962,-0.32266 -1.811104,-0.917371 -3.560822,-1.967608 -5.433313,-2.752111 -0.135576,-0.0568 -0.10051,0.277474 -0.129119,0.421659 -0.05043,0.254164 -0.07972,0.512268 -0.107308,0.769911 -0.186224,1.739035 -0.257525,3.494066 -0.406619,5.236768 -0.684847,6.614102 -1.342857,13.23036 -1.870062,19.859069 -0.467314,5.3354 -0.569876,10.702629 -0.09806,16.039229 0.180125,1.305534 0.20567,2.62204 0.321821,3.933021 0.04721,0.532871 0.0035,0.96325 0.41231,1.385909 0.302708,0.312983 0.694672,0.525158 1.042007,0.787738 0,0 2.91669,1.7155 2.91669,1.7155 v 0 c 0.366011,0.123103 0.712288,0.351449 1.098034,0.369306 0.520454,0.0241 0.297042,-0.97641 0.292817,-1.037093 -0.09463,-1.359098 -0.347341,-2.697413 -0.49293,-4.051072 -0.332093,-2.297483 -0.703765,-4.589267 -0.835045,-6.910313 -0.132432,-2.34142 -0.08365,-3.681553 0.01722,-6.049513 0.04777,-1.121397 0.120178,-2.241611 0.180268,-3.362415 0.275538,-3.509153 0.496073,-7.025283 0.907666,-10.522148 0.338737,-2.877881 0.460588,-3.477355 0.971127,-6.274856 0.16575,-0.908227 0.341196,-1.814661 0.511794,-2.721988 0.305422,-1.693976 0.647879,-3.371183 0.725637,-5.094343 0.01042,-0.230976 0.03987,-1.184148 -0.06014,-1.247746 -1.734266,-1.102823 -3.577741,-2.023697 -5.366612,-3.035546 0.300944,-0.06235 0.195026,-0.09797 0.476856,0.204462 0.43198,0.463571 0.513467,1.046543 0.547354,1.662687 0.02332,1.631148 -0.170137,3.248387 -0.328575,4.869563 -0.146866,1.523138 -0.06132,0.749713 -0.258909,2.320018 -0.144895,1.430528 -0.181451,2.859431 -0.238056,4.294539 -0.02303,0.583935 -0.0598,1.167246 -0.0897,1.75087 -0.26332,4.586792 -0.697503,9.182052 -1.77572,13.658691 -0.675458,3.134582 -1.47055,6.258284 -1.738203,9.462605 0,0 1.035167,0.604962 1.035166,0.604962 z" />
    <path
       style="fill:#008000;fill-opacity:0.498349;stroke-width:0.264583"
       id="path1256"
       d="m 24.118118,34.489625 c 0.342289,-0.125603 0.702956,-0.20942 1.026866,-0.376812 0.582783,-0.301172 1.117591,-0.687369 1.681371,-1.022765 0.793237,-0.4719 1.595829,-0.927944 2.389542,-1.399043 3.007254,-1.78491 5.977118,-3.631056 8.977754,-5.427151 4.577422,-2.713253 9.210863,-5.330371 13.863498,-7.912036 1.30352,-0.779027 2.755783,-1.208704 4.143882,-1.797412 2.210787,-1.086798 4.476814,-2.044427 6.753405,-2.982503 0.343982,-0.08184 0.679477,-0.217466 1.031947,-0.24553 0.191616,-0.01526 1.488998,0.110223 1.820558,0.147272 0.09773,0.01092 0.371848,0.09914 0.292047,0.04168 -5.169807,-3.7221983 -3.47522,-4.7572435 -5.563243,-3.235869 -2.143794,1.450028 -4.561541,2.457409 -6.887937,3.578901 -3.119988,1.37091 -5.825829,3.471632 -8.693997,5.275716 -0.809569,0.509221 -1.638022,0.987786 -2.457034,1.48168 -5.604431,3.345186 -11.094427,6.865368 -16.468815,10.567997 -0.753819,0.54056 -1.519361,1.065136 -2.261457,1.621679 -0.650169,0.4876 -1.272902,1.010793 -1.91425,1.50994 -1.751666,1.363279 -3.541962,2.673212 -5.184704,4.168042 -1.212831,1.063916 -2.250193,2.313225 -3.488177,3.347024 -0.130125,0.281784 -1.317149,0.963327 -1.238586,1.215721 0.02426,0.07793 0.104042,0.125785 0.156063,0.188677 0.213942,0.146838 0.427884,0.293677 0.641826,0.440515 0,0 2.78704,2.134306 2.78704,2.134306 v 0 c 0.243853,0.140179 0.487706,0.280358 0.731559,0.420537 0.113879,0.02793 0.224558,0.07737 0.341636,0.08379 0.629925,0.03452 0.968241,-0.903922 1.519394,-1.083069 1.18241,-1.109917 2.472156,-2.101554 3.570545,-3.303678 2.873379,-2.663049 5.92819,-5.09828 9.127998,-7.362189 5.356968,-3.742632 10.940959,-7.139327 16.580979,-10.436914 0.830382,-0.486382 1.653138,-0.986025 2.491147,-1.459145 2.950628,-1.665852 6.027809,-3.145364 8.706811,-5.248851 2.131957,-1.415559 4.338669,-2.778871 6.768171,-3.621949 2.464025,-0.770599 0.823058,-0.09168 -4.227827,-3.8743133 -0.04701,-0.035208 0.05797,0.1073593 0.05885,0.1660883 0.0026,0.174737 -0.140367,0.986507 -0.18614,1.053591 -0.157554,0.230911 -0.436144,0.349785 -0.654217,0.524678 -2.163847,1.125149 -4.347321,2.208885 -6.64142,3.049062 -1.351042,0.549883 -2.641266,1.208338 -3.809851,2.094568 -4.293362,2.870179 -8.56152,5.777858 -12.871175,8.623681 -2.890951,1.893142 -5.806297,3.745656 -8.71247,5.615199 -0.762204,0.490323 -1.518531,0.989849 -2.285179,1.473192 -0.554119,0.349351 -1.141783,0.646819 -1.676844,1.024713 -0.250732,0.177083 -0.446284,0.421579 -0.669426,0.632367 0,0 0.429856,0.308613 0.429856,0.308613 z" />
    <path
       style="fill:#008000;fill-opacity:0.498349;stroke-width:0.264583"
       id="path1258"
       d="m 71.960805,17.23116 c 3.684527,2.290322 7.387275,4.551322 11.075067,6.836457 4.691427,2.953829 9.459201,5.783278 14.16745,8.709638 0.716132,0.463616 1.453949,0.895342 2.148398,1.390851 0.374587,0.267274 -1.50382,-1.038572 -1.186984,-0.704858 0.473308,0.498517 1.118082,0.800209 1.668494,1.212011 1.48223,1.108967 2.88892,2.301267 4.29619,3.502293 2.07876,1.859552 4.02665,3.858185 6.10695,5.715709 0.20269,0.174244 0.40473,0.349252 0.60808,0.522734 0.076,0.0648 0.59876,0.523145 0.75085,0.594601 0.6718,0.315632 5.48443,2.916465 3.27136,1.221848 -0.25186,-0.19286 -0.52472,-0.356631 -0.78708,-0.534947 -4.29898,-2.943093 -8.70395,-5.724745 -13.11045,-8.5031 -0.77226,-0.508617 -3.149596,-1.927709 -2.316777,-1.525849 1.067982,0.515339 1.941227,1.39225 3.027157,1.86863 0.6169,0.270626 -1.06592,-0.824087 -1.59542,-1.240547 -1.718035,-1.351243 -1.576062,-1.323136 -3.532079,-2.627963 -3.956037,-2.63901 -7.934368,-5.244446 -11.901551,-7.866669 -6.983248,-4.724334 0.855559,0.620403 6.205082,3.794308 0.674886,0.400415 -1.249444,-0.950097 -1.861312,-1.441445 -1.556202,-1.249674 -3.014636,-2.585367 -4.445211,-3.974366 -1.470557,-1.358834 -2.494495,-3.060284 -3.539321,-4.742977 -0.676579,-0.211004 0.49013,-1.109919 0.134205,-1.345173 C 74.700968,13.833792 68.179378,9.6954495 61.697115,5.4970015 58.859544,3.4365125 61.782853,5.6204077 59.964301,4.969144 59.723567,4.8829319 59.519518,4.661246 59.263861,4.6563301 c -0.103595,-0.00198 0.02066,0.2146593 0.07816,0.3008484 0.160133,0.2400046 0.374578,0.4389435 0.561869,0.6584154 1.105196,0.9858057 2.210395,1.9716112 3.315591,2.9574169 0,0 8.376994,7.0972402 8.376994,7.0972402 v 0 c 1.261161,1.029711 2.522318,2.059422 3.783476,3.089133 0.295346,0.211239 1.560973,1.150387 2.016051,1.37135 0.217701,0.105704 0.578426,-0.402838 0.695663,0.207746 0.343033,0.215926 0.641842,0.499533 0.993352,0.701367 0.07239,0.04156 -0.09132,-0.139763 -0.136972,-0.209644 -6.183784,-4.030829 -12.400883,-8.011004 -18.55135,-12.0924878 -0.196752,-0.1305652 0.452744,0.1369804 0.671036,0.2270152 0.991589,0.4089797 1.846098,1.0543366 2.528718,1.8806136 1.697905,2.313174 3.730315,4.335268 5.818889,6.296056 7.456484,6.512177 15.940568,11.685091 24.353908,16.864305 -2.30941,-1.555464 -4.655555,-3.057732 -6.928228,-4.666396 -0.897371,-0.635182 1.865548,1.1639 2.799498,1.743959 5.101188,3.168261 10.121844,6.464033 15.235734,9.609466 0.63608,0.373557 1.27259,0.746365 1.90823,1.120674 0.59432,0.34998 2.03934,1.691942 1.78164,1.052184 -0.28143,-0.698645 -1.31996,-0.754184 -1.86921,-1.269579 -0.47038,-0.441386 1.08578,0.696701 1.62914,1.044313 0.47716,0.305258 0.9558,0.608198 1.43242,0.9143 0.35044,0.225067 0.69917,0.4528 1.04875,0.679201 1.68766,1.126186 2.33141,1.330365 4.83272,2.581666 0.10194,0.051 -0.20069,-0.109201 -0.29394,-0.174744 -0.38547,-0.270906 -0.71485,-0.568518 -1.07447,-0.874839 -2.09982,-1.900738 -4.09654,-3.908854 -6.22171,-5.78222 C 103.87414,36.450198 99.397614,33.311229 94.685236,30.524722 90.278321,27.948474 85.859842,25.392004 81.516969,22.707934 78.112115,20.67356 74.715,18.625388 71.287675,16.629169 c 0,0 0.673126,0.601991 0.673126,0.601991 z" />
    <path
       style="fill:#008000;fill-opacity:0.498349;stroke-width:0.264583"
       id="path1260"
       d="m 69.431132,10.091712 c 0.154993,0.188425 0.294984,0.390262 0.464976,0.565274 1.166937,1.201389 2.555113,2.206166 3.897111,3.196263 1.556838,1.148599 2.379591,1.705301 3.991735,2.829348 6.797802,4.695235 13.887127,8.942135 20.838974,13.399504 5.523942,3.635941 -0.138445,-0.109742 -2.13892,-1.301978 -0.697765,-0.415853 1.349369,0.90492 2.013611,1.372455 1.626001,1.144481 3.179881,2.371008 4.714091,3.633927 2.41623,2.014001 4.61512,4.262851 6.8176,6.502593 1.41585,1.677628 3.23804,2.61007 5.11121,3.715743 0,0 3.19186,1.48794 3.19186,1.48794 v 0 c 0.46268,0.106746 0.93353,0.457678 1.38804,0.320238 0.64841,-0.196072 -2.49984,-1.837767 -1.29913,-1.562751 -2.34366,-2.417022 -4.79076,-4.732292 -7.38658,-6.878754 -5.68848,-4.601188 -11.898101,-8.473445 -18.078268,-12.37827 -2.412023,-1.496424 -4.831206,-2.981578 -7.239584,-4.483852 -0.842079,-0.525265 -3.330398,-2.158478 -2.521204,-1.58384 1.12559,0.799323 2.29567,1.535263 3.471489,2.258673 0.802106,0.493486 -1.566547,-1.04572 -2.349823,-1.56858 -2.884865,-1.994061 -5.872855,-3.920887 -8.41966,-6.345677 0,0 -6.467528,-3.178256 -6.467528,-3.178256 z" />
    <path
       style="fill:#008000;fill-opacity:0.498349;stroke-width:0.264583"
       id="path1262"
       d="m 109.52472,40.57089 c -0.81164,0.439045 -0.799,1.119399 -0.85684,1.970974 -0.0321,0.472517 -0.0563,0.945642 -0.0721,1.418984 -0.0276,0.826437 -0.0519,3.175641 -0.061,3.903509 0.11582,3.428947 -0.18924,1.610128 1.19655,5.401739 0,0 3.05336,1.77373 3.05336,1.77373 v 0 c 1.97392,-2.071339 1.35605,-0.850736 1.86028,-3.658429 0.0468,-0.706958 0.13599,-1.41238 0.14051,-2.120873 0.0173,-2.71803 -0.65682,-5.126286 -2.45105,-7.191706 0,0 -2.80971,-1.497928 -2.80971,-1.497928 z" />
    <path
       style="fill:#008000;fill-opacity:0.498349;stroke-width:0.264583"
       id="path1264"
       d="m 112.13396,41.205128 c -0.15006,0.417193 -0.74246,0.476742 -0.9102,0.858618 -0.49288,1.122119 -0.38977,3.288033 -0.51775,4.312857 -0.28181,2.25675 -0.7998,4.048476 -1.34792,6.26088 -0.30096,1.179007 -0.6083,2.356408 -0.90289,3.537024 -0.30813,1.234845 -0.59457,2.475053 -0.90526,3.70926 -0.44942,1.785366 -1.50729,5.699987 -1.89819,7.498389 -0.35505,1.633443 -1.1322,6.143744 -1.42406,7.801936 -0.5868,3.303198 -1.51632,6.533067 -2.22621,9.808112 -0.45823,2.114002 -0.74745,4.262337 -1.06279,6.400712 0.0595,0.891456 -0.40197,1.894906 -0.12458,2.786473 0.11773,0.378407 0.50243,0.876977 0.82245,1.09638 1.93887,1.329275 3.92894,2.582281 5.89342,3.873421 0.007,-0.0136 0.18277,-0.370549 0.17152,-0.387914 -0.33788,-0.52166 -1.59563,-1.471247 -1.92476,-1.742538 0,0 -0.43579,-0.300169 -0.43579,-0.300169 v 0 c -0.90945,-0.601644 -1.91377,-1.155637 -2.6866,-1.939806 1.83281,1.209746 3.6599,2.428221 5.49844,3.629239 0.0249,0.0163 0.0821,0.04887 0.0872,0.01953 0.011,-0.06415 -0.4398,-1.746599 -0.44283,-1.77188 -0.0515,-0.429686 -0.0397,-0.864619 -0.0596,-1.296929 0.028,-0.57744 0.0281,-1.156912 0.084,-1.732323 0.1082,-1.113639 0.54482,-3.732908 0.70368,-4.74133 0.52166,-3.311425 1.10992,-6.608646 2.15394,-9.806017 0.28786,-0.853646 2.15589,-6.37141 2.40629,-7.203109 0.60219,-2.000144 1.44632,-5.451726 1.95818,-7.47187 0.3131,-1.235742 0.65772,-2.463848 0.94235,-3.706455 0.27915,-1.218618 0.49901,-2.450061 0.74851,-3.675089 0.38872,-3.209682 0.51981,-3.663672 0.61551,-6.830454 0.0591,-1.956097 0.1954,-3.418491 -0.67488,-5.226564 -0.0764,-0.158787 -1.67487,-2.059112 -1.99029,-2.436421 0,0 -2.55086,-1.323956 -2.55086,-1.323956 z" />
    <path
       style="fill:#008000;fill-opacity:0.498349;stroke-width:0.264583"
       id="path1266"
       d="m 82.264744,118.78766 c 0.285623,-0.17284 0.58847,-0.31998 0.856869,-0.51851 1.662419,-1.2297 3.206141,-2.78909 4.71888,-4.18869 6.250403,-5.78292 -2.124966,1.97299 4.595921,-4.25221 0.816266,-0.76745 1.637544,-1.52962 2.448796,-2.30238 0.79172,-0.75415 1.560332,-1.53255 2.360017,-2.27825 2.101839,-1.95997 2.375075,-2.10544 4.485793,-3.93938 2.39417,-2.116698 1.23274,-1.10167 3.48196,-3.047738 0.43546,-0.410565 0.86376,-0.828865 1.30638,-1.231699 0.93731,-0.853054 1.10064,-1.00729 2.10908,-1.652828 0.60017,-0.384196 1.20879,-0.674801 1.75416,-1.134634 0.0882,-0.07275 0.15488,-0.185965 0.26455,-0.218252 0.0588,-0.0173 0.58381,0.03218 0.69768,0.04202 -2.06688,-1.267788 -4.00603,-2.772352 -6.20064,-3.80337 -0.27442,-0.128918 -0.48228,0.367578 -0.72447,0.549979 -0.37352,0.28131 -0.74843,0.560763 -1.12265,0.841145 -4.331824,3.235587 -8.428513,6.762916 -12.531153,10.279777 -4.376975,3.68605 -8.834723,7.29882 -13.685922,10.34547 -1.411089,0.8839 -2.976761,1.44382 -4.504952,2.07832 -0.387265,0.1608 -0.749562,0.39405 -1.156642,0.49463 -2.00453,0.49529 -1.004056,-0.4304 -2.020943,0.87636 -2.054651,1.05 -3.938883,2.43025 -5.67418,3.94367 -0.707477,0.76073 -1.665332,1.22625 -2.447917,1.88874 -0.198011,0.16762 -0.546092,0.30482 -0.536262,0.56407 0.04343,1.14556 2.949572,3.75284 2.968826,3.77342 0,0 2.265643,1.66918 2.265643,1.66918 v 0 c 1.148799,0.54185 4.032509,2.33456 5.873607,2.1828 0.601154,-0.0496 1.892847,-2.4517 2.418146,-2.903 1.394682,-1.56107 2.589519,-3.30867 4.232608,-4.63849 2.041726,-0.61439 0.412213,0.19683 1.430465,-1.28494 0.21051,-0.30634 0.561303,-0.48778 0.830881,-0.74368 1.071544,-1.01719 2.017281,-2.15978 3.151227,-3.11297 4.201404,-3.71408 8.413253,-7.4152 12.552656,-11.19871 4.103412,-3.53797 8.293772,-6.975174 12.755182,-10.058133 0.37983,-0.274045 0.75726,-0.551447 1.13949,-0.822135 0.25069,-0.177527 0.97294,-0.301879 0.75913,-0.52243 -1.61786,-1.668865 -3.64309,-2.887607 -5.46463,-4.331412 0.0759,0.137742 0.2074,0.315198 0.11762,0.492533 -0.0544,0.107458 -0.19146,0.146179 -0.2872,0.219271 -0.53233,0.436446 -0.87579,0.941101 -1.2964,1.486982 -0.80496,1.044702 -0.69773,0.904189 -1.69503,1.956181 -0.40822,0.430617 -0.82263,0.855339 -1.23394,1.283012 -1.58881,1.83229 -3.184272,3.669493 -4.837124,5.444391 -2.350561,2.52412 -1.976808,2.00777 -4.478782,4.50499 -0.787289,0.78579 -1.55761,1.5884 -2.336416,2.3826 -2.475526,2.65706 -1.845979,1.9509 -4.162989,4.55096 -1.312661,1.47302 -2.839108,3.06857 -3.958312,4.7047 -0.171788,0.25113 -0.288642,0.53572 -0.432961,0.80358 0,0 1.213948,0.82506 1.213948,0.82506 z" />
    <path
       style="fill:#008000;fill-opacity:0.498349;stroke-width:0.264583"
       id="path1268"
       d="m 28.30381,102.24333 c 0.320757,0.21799 0.626287,0.46028 0.962273,0.65398 0.216025,0.12454 0.461661,0.1893 0.686716,0.29667 0.396444,0.18913 0.782243,0.39991 1.177033,0.59246 1.745583,0.85137 3.525504,1.62609 5.303393,2.40663 5.274532,2.17598 10.484146,4.49727 15.647993,6.92271 5.076721,2.34704 10.108789,4.78787 14.895806,7.68601 4.673719,3.04553 -1.024742,-0.68051 -2.048185,-1.25342 -0.497647,-0.27857 0.916125,0.67986 1.362805,1.03445 1.010632,0.80226 1.932387,1.66558 2.825607,2.59329 0.442347,0.50333 0.882764,1.03036 1.219269,1.61394 0.186113,0.32277 0.243287,0.5743 0.185521,0.59178 -0.118801,0.0359 -0.233257,-0.0849 -0.349885,-0.1274 -0.231402,-0.34203 -0.465378,-0.7375 -0.793734,-1.00065 -0.164029,-0.13145 -1.388833,-0.75014 -1.456092,-0.78429 -1.658065,-0.8419 -0.407493,-0.16541 -2.371125,-1.27563 -3.647392,-2.0793 -7.03721,-4.58199 -10.465583,-6.99843 -0.951833,-0.73261 -3.873479,-2.83532 -2.855497,-2.19782 6.464557,4.04835 25.578099,16.63205 19.207189,12.43787 -7.680232,-5.05615 -15.412503,-10.03286 -23.135241,-15.02384 -1.985711,-1.28331 -4.046333,-2.46114 -6.051227,-3.71526 -6.962002,-4.4982 -17.308177,-11.184534 17.26047,11.19686 0.650226,0.42099 -1.294501,-0.8511 -1.942039,-1.27621 -0.620866,-0.4076 -1.240394,-0.81725 -1.863178,-1.22191 -22.531876,-14.6401 -15.523157,-10.14737 -24.88076,-16.139105 -2.429444,-1.618498 -5.039741,-2.908093 -7.739707,-4.001592 -1.066851,-0.35863 -2.095547,-1.018157 -3.242416,-1.084644 -2.530126,0.767046 2.615768,3.141356 3.842819,4.271653 0,0 11.830049,8.515668 11.830049,8.515668 v 0 c 1.494361,1.31408 2.988723,2.62815 4.483084,3.94222 -0.0866,0.24034 -0.111347,0.14067 0.0027,0.30811 0.872429,0.53569 1.916885,0.74839 2.814873,1.23579 2.530854,1.19401 4.944713,2.60243 7.279981,4.14478 8.249248,5.29782 1.847824,1.19088 -18.001035,-11.7104 -0.6297,-0.40929 1.261174,0.81585 1.890295,1.22603 0.656513,0.42804 1.309507,0.86147 1.966595,1.28863 23.582706,15.33069 15.579378,10.27675 25.502089,16.52568 1.366088,0.84286 2.736302,1.67906 4.098649,2.52795 0.65898,0.41062 2.620648,1.66656 1.970977,1.24137 -41.230348,-26.98389 -8.999096,-5.72121 3.356636,2.10232 0.10024,0.0635 0.22089,-0.0867 0.331333,-0.13004 0.296931,0.13161 1.417396,0.63645 1.743342,0.74952 0.882044,0.30597 1.826183,0.42093 2.748899,0.51742 1.105297,-0.44163 1.75527,0.12287 1.604828,-1.58787 -0.677757,-1.13224 -1.185688,-2.36405 -2.151865,-3.3017 -3.75503,-3.99283 -8.508928,-6.74217 -13.121814,-9.65115 -4.759164,-2.80821 -9.73546,-5.19881 -14.76793,-7.47634 -4.906042,-2.16164 -9.865865,-4.19685 -14.839754,-6.19696 -1.642669,-0.66496 -3.275912,-1.33748 -4.886169,-2.078 -0.352639,-0.16217 -0.708864,-0.31736 -1.053978,-0.49498 -0.323696,-0.1666 -0.615213,-0.39642 -0.951049,-0.536948 -0.04486,-0.01876 -0.0758,0.06094 -0.113701,0.09141 0,0 2.880704,2.549388 2.880704,2.549388 z" />
    <path
       style="fill:#008000;fill-opacity:0.498349;stroke-width:0.264583"
       id="path1270"
       d="m 47.841807,34.639982 c 0.832096,-0.657701 1.237657,-1.113327 2.354482,-1.074515 0.220456,-0.08048 0.332407,0.214157 0.520838,0.220573 0.753274,0.02566 1.283237,-0.367221 0.886833,0.116099 -0.02635,0.03214 0.03961,-0.0735 0.06492,-0.106474 0.06083,-0.07923 0.128601,-0.152892 0.192903,-0.229338 0.270266,-0.228886 0.642255,-0.571262 1.040027,-0.368202 0.157289,0.0803 0.533029,0.45851 0.381793,0.367321 -2.073333,-1.295847 -4.146666,-2.591692 -6.220002,-3.887539 -0.0037,-0.006 -0.0074,-0.01191 -0.01114,-0.01786 -0.20805,0.14968 -0.343021,0.392758 -0.562075,0.526711 -0.2163,0.132268 -0.469964,0.191143 -0.698926,0.300025 -0.212305,0.100959 -0.40653,0.239273 -0.623816,0.328998 -0.337635,0.13942 -0.699043,0.212725 -1.045046,0.329846 -2.869012,-1.409459 -0.55014,-0.279501 7.341518,4.73687 0.158358,0.10066 0.231478,-0.29544 0.350562,-0.440452 0.481259,-0.58605 0.351025,-0.431361 0.937453,-0.910096 0.415711,-0.118271 0.689459,-0.295566 1.110991,-0.05302 0.146172,0.08411 0.47739,0.468437 0.333547,0.380405 -2.542225,-1.614602 -5.084453,-3.2292 -7.626681,-4.843801 0.02405,0.09766 0.07984,0.192693 0.07216,0.292975 -0.01408,0.183798 -0.09045,0.357402 -0.135681,0.536102 -0.245555,0.481142 -0.561581,0.918001 -0.907315,1.330814 -0.04337,0.05178 -0.07122,0.172945 -0.135112,0.15103 -0.0772,-0.02648 -0.159043,-0.270383 -0.08929,-0.228 2.670156,1.622494 5.288237,3.329173 7.932356,4.993762 -0.22311,-0.06182 -0.170164,-0.0037 -0.219721,-0.348216 -0.01614,-0.112284 -0.04139,-0.230116 -0.01344,-0.340058 0.09407,-0.369887 0.236172,0.107439 0.227364,0.102346 -2.484207,-1.436105 -4.921041,-2.952639 -7.381563,-4.428961 0.340903,0.162502 0.249614,0.719765 0.112779,0.995167 -0.182925,0.36817 -0.554109,0.554873 -0.70912,0.947674 1.961427,-2.59575 -0.04869,-0.01905 8.040605,4.700743 0.07609,0.04439 -0.105862,-0.155582 -0.102447,-0.243607 0.0076,-0.197249 0.09557,-0.383204 0.134271,-0.57677 0.267102,-1.335942 -0.02394,-0.165359 0.302646,-1.393354 0.09418,-0.121507 0.318278,-0.649626 0.607844,-0.299694 0.1061,0.12822 0.290533,0.560488 0.14637,0.477338 -2.381033,-1.373291 -4.583991,-3.041272 -6.966958,-4.411202 -0.173914,-0.09998 0.188748,0.356713 0.247763,0.548441 0.06987,0.22697 0.09087,0.466185 0.136303,0.699278 -0.375229,0.335785 -0.05341,1.035825 -0.423021,1.356638 -0.112025,0.09723 -0.348051,-0.289637 -0.308287,-0.265682 2.383605,1.435968 4.728326,2.935513 7.092489,4.40327 -0.600789,-0.46093 -0.817779,-1.131342 -1.087183,-1.80481 -0.112556,-0.281371 -0.46115,-0.812916 -0.214564,-1.146789 0.677492,3.700976 -6.207342,-3.382925 -7.230269,-4.037785 -0.05333,-0.03414 0.116213,0.05542 0.162097,0.09905 0.05223,0.04967 0.0523,0.134811 0.08741,0.19775 2.586728,1.584015 5.137941,3.227543 7.760185,4.752046 0.10252,0.0596 0.09259,-0.311682 0.208798,-0.288044 0.04576,0.0093 0.081,0.158546 0.04138,0.133837 -5.892906,-3.674782 -9.869382,-6.432052 -6.783086,-4.299905 0.835255,0.574971 1.670508,1.14994 2.50576,1.724909 0,0 1.388398,0.866775 1.388398,0.866775 v 0 c 0.895149,0.432236 1.790298,0.86447 2.685447,1.296707 0.209611,-0.006 0.797174,0.107082 0.628833,-0.01794 -2.392863,-1.777286 -4.903306,-3.392083 -7.403944,-5.014225 -0.0496,-0.03218 -0.04688,0.113755 -0.09254,0.151318 -0.06484,0.05334 -0.213839,-0.241652 -0.211098,-0.137424 2.490515,1.588177 4.98103,3.176354 7.471545,4.764532 -0.182759,-0.120883 -0.368761,-0.482756 -0.390541,-0.497335 -4.79851,-3.21228 -5.943904,-7.318449 -8.152818,-4.259892 -0.435015,1.279022 -0.207613,2.65933 0.479777,3.813651 2.684859,1.713643 5.295831,3.548965 8.054581,5.140931 0.674658,0.389318 1.518856,-0.432152 1.698699,-0.985226 0.219649,-0.675498 0.04804,-0.910905 -0.11548,-1.613586 -0.0168,-0.168746 -0.113356,-1.544748 -0.289717,-1.683496 -2.437529,-1.917644 -5.008221,-3.667577 -7.627686,-5.328094 -0.173246,-0.109823 -0.420264,0.02109 -0.605665,0.108852 -0.292267,0.138343 -0.654497,0.655899 -0.837076,0.885923 -0.507965,0.610277 -0.929137,1.131483 -1.202592,1.887392 -0.0825,0.228042 -0.411123,0.549108 -0.216963,0.694404 7.624646,5.705872 5.325154,6.713117 8.647562,5.001813 0.638892,-0.737465 0.276751,-0.731991 0.340944,-1.637935 0.0466,-0.657622 0.337368,-1.289127 0.142307,-1.959046 -2.596888,-1.589874 -5.1224,-3.302691 -7.790662,-4.769625 -0.134972,-0.0742 -0.247594,0.184123 -0.361492,0.287805 -0.101844,0.09271 -0.180621,0.209108 -0.284152,0.299924 -0.409377,0.359108 -0.798976,0.52846 -0.894993,1.137433 12.233891,8.040309 5.150533,6.860672 8.512998,5.123686 0.169643,-0.08763 0.36485,-0.129884 0.518816,-0.242817 0.576988,-0.423206 0.757036,-1.146693 0.967531,-1.784897 0.02622,-0.07493 0.543039,-1.395119 0.374457,-1.52975 C 49.040121,29.493527 49.363561,27.03 45.813755,29.62471 c -0.637768,0.369583 -1.432724,0.701329 -1.938423,1.256398 -2.538002,2.785782 4.481889,7.198418 7.505026,5.632624 0.466838,-0.217828 1.17177,-0.706863 1.529418,-1.060021 0.184111,-0.181798 0.310653,-0.414038 0.474186,-0.614545 0.156176,-0.191487 0.357924,-0.348813 0.48458,-0.560983 0.116723,-0.195532 0.155704,-0.428003 0.233555,-0.642003 -0.206623,-3.18379 0.108186,-0.884862 -6.58645,-4.869757 -0.08764,-0.05217 -0.08447,0.187841 -0.147278,0.268198 -0.270491,0.346064 -0.707977,0.475342 -1.052896,0.724823 -0.04962,0.03779 -1.059598,0.896514 -0.802992,1.037085 0.967994,0.530267 1.065914,-0.357855 1.385922,0.439531 -0.01945,1.009642 -0.609126,1.223293 -1.230042,1.915707 0,0 2.173435,1.488242 2.173435,1.488242 z" />
    <path
       style="fill:#008000;fill-opacity:0.498349;stroke-width:0.264583"
       id="path1272"
       d="m 20.755748,82.590263 c 1.887764,1.121 3.817143,2.167663 5.761248,3.187039 2.362827,1.195644 4.626766,2.5688 6.90816,3.909459 1.691793,0.953127 3.305175,2.111841 5.176441,2.681973 1.997268,0.169116 3.439088,-1.18209 4.802076,-2.448362 1.213371,-1.196218 2.316387,-2.531477 3.220741,-3.979277 0.526023,-0.842124 0.801804,-1.485437 1.229913,-2.381425 1.117327,-2.334688 1.630654,-4.883118 1.969802,-7.431945 0.01717,-0.592936 0.09863,-1.683993 -0.08147,-2.272284 -0.145217,-0.474337 -0.427218,-0.895445 -0.640829,-1.343167 0,0 -0.531625,-0.307465 -0.531625,-0.307465 v 0 c -0.251044,0.177425 -0.57346,0.282835 -0.753131,0.532273 -0.195516,0.271439 -0.420264,1.676559 -0.468741,1.934133 -0.347205,2.538976 -0.753496,5.068978 -1.805586,7.431948 -1.077372,2.33698 -2.307627,4.598855 -4.088325,6.486128 -1.217764,1.199615 -2.602984,2.482786 -4.420931,2.465387 -0.366025,-0.03726 -0.673751,-0.04265 -1.021514,-0.179419 -1.194546,-0.469786 -2.219238,-1.311555 -3.362187,-1.880418 -2.226107,-1.308994 -4.453792,-2.617708 -6.763931,-3.77522 -1.896145,-0.991796 -3.785168,-1.997321 -5.632829,-3.07766 0,0 0.502721,0.448302 0.502721,0.448302 z" />
    <path
       style="fill:#008000;fill-opacity:0.498349;stroke-width:0.264583"
       id="path1274"
       d="m 45.218897,79.528269 c 0.877499,-1.56547 1.951167,-3.007296 2.911083,-4.519218 0.80155,-1.262486 0.941467,-1.623375 1.614279,-2.959811 1.175308,-2.939394 2.24327,-5.916547 3.482155,-8.829969 0.640572,-1.652077 1.642996,-3.744783 1.711745,-5.544349 0.01151,-0.301268 -0.0486,-0.601014 -0.07291,-0.901523 -0.468905,-1.456817 -0.04791,-0.626094 -1.783087,-2.150962 0,0 -2.87831,-1.596535 -2.87831,-1.596535 v 0 c -1.576083,-0.388094 -1.214242,-0.788406 -1.611892,0.14968 -0.340773,2.235491 -0.185944,4.540795 -0.740106,6.754347 -0.708109,3.186456 -1.618559,6.323486 -2.364893,9.50152 -0.613034,3.030818 -0.988542,6.11164 -1.895229,9.075719 0,0 1.627161,1.021101 1.627161,1.021101 z" />
    <path
       style="fill:#008000;fill-opacity:0.498349;stroke-width:0.264583"
       id="path1276"
       d="m 87.452022,39.433399 c -2.234631,-1.384348 -4.659043,-2.359147 -7.143679,-3.184036 -1.391446,-0.391551 -2.810901,-0.633888 -4.256648,-0.449789 -0.269756,0.03435 -1.653077,0.333021 -1.897338,0.384713 -2.244047,0.592796 -4.240995,1.779357 -6.295017,2.813748 -2.191115,1.227045 -4.344746,2.567712 -6.272273,4.18239 -1.392637,1.250038 -2.63984,2.861252 -3.35937,4.605698 -0.142393,0.345223 -0.223181,0.712748 -0.334772,1.069123 -0.681093,2.138436 -0.314033,4.322484 -0.05405,6.489393 0.455978,1.910717 1.125414,3.776435 2.015149,5.527513 0.857269,1.740604 1.944373,3.313316 3.261765,4.733526 5.552921,5.112543 1.543023,1.495702 17.407263,11.511232 0.311618,0.196734 0.692409,0.255516 1.04825,0.351361 1.05343,0.283747 2.161846,0.388843 3.242619,0.502222 1.605756,0.125179 3.281159,0.215553 4.760113,0.930251 0.277355,0.13403 0.528831,0.316069 0.793245,0.474102 5.377077,4.540559 0.189262,0.105687 -14.334222,-9.14064 -0.270508,-0.172217 0.495712,0.408199 0.724775,0.632616 0.784196,0.768294 1.383036,1.622168 1.946193,2.556632 0.562208,1.0507 1.274734,2.102635 1.536314,3.286606 0.09963,0.450927 0.07933,0.992632 0.08258,1.44897 -0.283797,1.25517 -0.373364,2.64736 -1.117229,3.743952 -0.163013,0.240307 -0.372965,0.445177 -0.559448,0.667768 -1.529176,1.885011 0.521004,-0.511392 -1.357617,1.244121 -0.227611,0.212694 -0.370859,0.501888 -0.579652,0.733081 -0.633788,0.701784 -1.385999,1.311252 -2.116669,1.906381 -1.496375,1.340941 -3.304665,2.305921 -5.187127,2.984328 -1.878489,0.737553 -3.909044,0.837655 -5.898695,0.986984 -2.217216,0.2262 -4.41611,-0.048 -6.609191,-0.361472 -2.044629,-0.210566 -3.960498,-0.998397 -5.967929,-1.392047 -0.149288,0.01214 -0.346458,-0.07381 -0.447865,0.03643 -0.08536,0.09279 -0.004,0.271254 0.07291,0.371168 0.297598,0.386617 0.658889,0.721715 1.020479,1.049264 1.013651,0.91822 2.068203,1.790255 3.102304,2.685383 0,0 4.023685,3.52647 4.023685,3.52647 v 0 c 2.374474,1.923777 4.703093,4.157079 7.595179,5.302119 1.929739,0.60487 3.882814,0.89366 5.910141,0.86282 2.072029,-0.0246 4.157911,-0.15229 6.20141,-0.49444 1.894081,-0.41856 3.654163,-1.18877 5.394603,-2.036455 0.611661,-0.355849 1.240094,-0.683982 1.837094,-1.063921 1.175801,-0.748295 2.229485,-1.667349 3.40319,-2.416675 0.78255,-0.633947 1.558981,-1.285203 2.355459,-1.90105 0.279378,-0.216019 0.610047,-0.370335 0.857289,-0.622504 0.464474,-0.473728 0.613212,-1.215781 1.258994,-1.541539 0.766341,-1.011373 1.753705,-1.946429 2.388269,-3.049344 0.351935,-0.61169 0.442135,-1.082781 0.635312,-1.754918 0.402542,-2.177428 0.132969,-3.674671 -0.853993,-5.657038 -0.523547,-0.952211 -0.989875,-1.95731 -1.602113,-2.857595 -4.130651,-6.07406 -11.432492,-9.426921 -18.138486,-12.296764 -1.924775,-0.57295 -3.910526,-0.748448 -5.891795,-1.0404 -1.033674,-0.2106 -1.989571,-0.434803 -2.938846,-0.915149 -0.286768,-0.145108 -1.102145,-0.661016 -0.833847,-0.484073 13.443452,8.866044 20.135826,13.021923 14.121878,9.279135 -1.375822,-1.066628 -2.503106,-2.370933 -3.259314,-3.953774 -0.749557,-1.536917 -1.534068,-3.069381 -1.83832,-4.771882 -0.06595,-0.299757 -0.160533,-0.594625 -0.197845,-0.899274 -0.167883,-1.370714 0.13168,-2.808999 0.563049,-4.098761 0.181719,-0.330827 0.63191,-1.176443 0.853932,-1.472565 0.832652,-1.110546 2.097765,-1.765284 3.155403,-2.624862 1.987134,-1.368891 3.984511,-2.715657 6.177055,-3.745873 1.986676,-0.999104 4.118446,-1.679554 6.337882,-1.912456 1.560957,-0.15912 3.12875,0.01749 4.684252,-0.215411 0.782531,-0.232285 0.1476,-0.0421 0.901118,-0.272319 0.136734,-0.04178 0.296762,-0.03773 0.410493,-0.124376 0.302074,-0.230134 0.140131,-0.749051 0.02439,-1.004596 0,0 -10.760683,-9.1235 -10.760683,-9.1235 z" />
    <path
       style="fill:#008000;fill-opacity:0.498349;stroke-width:0.264583"
       id="path1278"
       d="m 76.247502,46.905732 c 1.721927,-1.297559 3.36423,-2.706251 5.048052,-4.056515 1.383697,-0.956463 2.589988,-2.366425 4.192254,-2.988915 0.215225,-0.08362 0.44518,-0.122749 0.667771,-0.184121 0.569381,-0.161409 1.1268,-0.08537 1.696403,0.0056 0.09599,0.01532 0.194217,0.02059 0.287853,0.04667 0.07188,0.02003 0.26973,0.127182 0.204695,0.0906 -0.09678,-0.05443 -0.200144,-0.09622 -0.300215,-0.14433 0.05236,0.430403 -0.811154,0.36114 -1.064368,0.351427 -1.279464,-0.105579 -2.538214,0.205195 -3.771591,0.504934 -1.467164,0.389382 -2.747475,1.227788 -4.071043,1.936321 -1.900134,1.017183 -0.616183,0.196692 -2.349457,1.405401 -2.2654,1.507836 -4.416812,3.187856 -6.389841,5.061923 -1.443342,1.332521 -2.728788,2.827589 -3.796993,4.475848 -0.877197,1.256205 -1.669669,2.553436 -1.990506,4.065487 -0.266425,1.67272 0.360458,3.180353 1.170662,4.60184 1.160161,1.765916 2.889843,3.026817 4.533482,4.309644 2.351368,1.89615 4.909413,3.495699 7.438308,5.138801 0.250844,0.161197 1.003139,0.645163 0.752536,0.48359 -3.970935,-2.560244 -1.457018,-0.959451 -0.652505,-0.307354 0.569339,0.461481 0.618329,0.535596 1.131295,1.045676 0.99817,1.030758 1.630516,2.317546 2.253848,3.591758 0.605118,1.109599 1.147231,2.248572 1.591601,3.431673 0.468831,1.269224 0.942049,2.54572 1.241967,3.866708 0.331103,1.15022 0.447374,2.347777 0.495665,3.539426 0.02514,1.476978 -0.512156,2.74841 -1.283184,3.972272 -1.029065,1.452631 -2.590863,2.187995 -4.23337,2.731177 -1.86671,0.594511 -3.802065,0.923613 -5.740649,1.175131 -1.943848,0.292335 -3.882959,0.09239 -5.790075,-0.318505 -1.842344,-0.365255 -3.507801,-1.198259 -5.135245,-2.09966 -1.822445,-0.929581 -7.148976,-4.470979 0.266073,0.309126 -0.416965,-0.286369 -0.826823,-0.592764 -1.112904,-1.015846 -0.107056,-0.07929 0.314362,-0.264718 0.407773,-0.312452 0.01262,-0.05145 0.02106,-0.104108 0.03788,-0.154337 0.07367,-0.219845 0.479791,0.292608 0.196247,0.120494 -3.524525,-2.139442 -4.745929,-3.380428 -3.545453,-2.182947 1.348438,1.103093 2.722816,2.162688 4.177048,3.124652 2.557063,1.49592 5.853385,4.516964 9.274535,4.085437 0.391149,-0.04934 0.76341,-0.197316 1.145114,-0.295974 1.006633,-0.385397 2.821381,-0.998588 3.561773,-1.799481 0.301622,-0.326271 0.426402,-0.779677 0.639604,-1.169514 0,0 -0.871853,-0.634355 -0.871853,-0.634355 v 0 c -0.670036,0.05257 -1.34747,0.04534 -2.010103,0.157711 -1.466842,0.24875 -2.837164,1.027636 -4.351041,1.081405 -1.880878,0.04757 -3.109709,-0.025 -4.856258,-0.806821 -0.38069,-0.170407 -1.441293,-0.826601 -1.116462,-0.56497 0.793829,0.639374 1.690759,1.138947 2.53614,1.70842 -1.273961,-0.831175 -2.592843,-1.697667 -3.637436,-2.809428 -1.558751,-1.288423 -0.989955,-0.844973 -4.483418,-2.932271 -0.06958,-0.04158 -0.166216,-0.0079 -0.242361,0.01987 -0.05941,0.0217 -0.08972,0.092 -0.145558,0.121716 -0.0685,0.03646 -0.323053,0.07014 -0.382785,0.07979 -0.216448,0.241512 -0.508027,0.420003 -0.661718,0.718887 -0.09128,0.670671 0.528407,1.096359 0.999445,1.467458 2.426737,1.586923 4.776674,3.256717 7.388495,4.519279 1.449586,0.688176 2.966672,1.232636 4.563729,1.45492 1.854054,0.230918 3.719631,0.417087 5.566756,0.0033 1.886908,-0.352624 3.768051,-0.739458 5.589424,-1.359522 0.400481,-0.154432 1.350756,-0.5076 1.736817,-0.708697 1.001575,-0.521721 1.779106,-1.38548 2.491555,-2.239669 0.850553,-1.184166 1.500002,-2.492978 1.616133,-3.970266 0.02273,-1.180444 -0.06829,-2.356694 -0.295299,-3.51687 -0.391416,-1.282711 -0.725868,-2.581029 -1.154779,-3.851892 -0.422735,-1.209087 -0.904309,-2.388949 -1.590939,-3.476699 -0.677765,-1.276059 -1.25535,-2.628204 -2.251041,-3.701444 -1.872559,-1.904735 -4.13835,-3.28128 -6.425271,-4.657484 0.587743,0.385138 1.171998,0.775652 1.763231,1.155414 0.25513,0.163872 -0.504158,-0.337066 -0.754822,-0.50769 -1.137073,-0.774007 -2.236158,-1.600319 -3.331644,-2.431823 -1.605235,-1.239345 -3.282402,-2.467342 -4.461968,-4.143139 -0.820115,-1.348158 -1.385702,-2.749899 -1.235863,-4.360037 0.06865,-0.300268 0.229417,-1.043522 0.332356,-1.328187 0.349621,-0.966841 0.934829,-1.857539 1.410325,-2.761732 1.016193,-1.639085 2.05183,-3.266908 3.447624,-4.620953 1.994312,-1.835351 4.120271,-3.509909 6.377791,-5.013285 3.071517,-1.874438 -0.646991,0.442018 2.215171,-1.48586 1.188093,-0.80027 2.48647,-1.418045 3.715909,-2.148078 0.854176,-0.490398 1.730203,-0.925867 2.623339,-1.337538 0.314105,-0.137057 0.990123,-0.108027 0.976378,-0.565571 -1.069311,-0.805767 -1.924092,-1.169971 -3.303082,-0.929962 -0.216982,0.07465 -0.44201,0.1291 -0.650949,0.223964 -1.556816,0.706827 -2.658898,2.163657 -4.04201,3.120096 -1.63934,1.370349 -3.318415,2.70482 -4.861772,4.183113 0,0 0.582771,0.407294 0.582771,0.407294 z" />
    <path
       style="fill:#008000;fill-opacity:0.498349;stroke-width:0.264583"
       id="path1280"
       d="m 80.534623,93.694807 c 1.21571,-0.783619 2.420215,-1.583989 3.600235,-2.420366 0,0 -0.432572,-0.304792 -0.432572,-0.304792 v 0 c -1.19647,0.847228 -2.408878,1.67481 -3.727828,2.323772 0,0 0.560165,0.401386 0.560165,0.401386 z" />
    <path
       style="fill:#008000;fill-opacity:0.498349;stroke-width:0.264583"
       id="path1282"
       d="m 85.75345,91.329371 c 0.639548,-0.224792 0.973449,-0.287139 1.530656,-0.729718 0.715632,-0.56841 1.566688,-1.710928 1.993932,-2.504593 0.197332,-0.366573 0.326229,-0.766051 0.489342,-1.149078 0.491395,-1.456272 1.056859,-2.939534 1.071078,-4.498536 0.0069,-0.758152 -0.09896,-1.266406 -0.210693,-2.009129 -0.433374,-1.592085 -0.721558,-3.234036 -1.223028,-4.805275 -0.517179,-1.080799 -0.665372,-2.131531 -1.383139,-3.110735 -0.233852,-0.196811 -0.310716,-0.508852 -0.504714,-0.733439 -0.116943,-0.135379 -0.242482,-0.268351 -0.392028,-0.36653 -4.363135,-2.864484 -8.750146,-5.69251 -13.139261,-8.517024 -0.397399,-0.255736 -1.158925,-0.641512 -1.583541,-0.86306 -1.640142,-0.810869 -3.157633,-1.835058 -4.674738,-2.850965 24.792215,15.183836 14.573967,10.351627 10.062276,6.024917 -0.530675,-0.613947 -1.294355,-1.213282 -1.504334,-2.045552 -0.110709,-0.438806 -0.02421,-0.862785 0.01961,-1.301425 0.283258,-1.265346 0.503002,-2.544352 1.042646,-3.732231 0.174157,-0.383362 0.424892,-0.731808 0.571505,-1.126527 0.155993,-0.419962 0.220528,-0.868434 0.330793,-1.302649 -0.403519,-2.783224 0.112482,-0.8889 -1.964404,-4.163277 -0.458057,-0.722162 -0.860184,-1.478315 -1.290275,-2.217473 0,0 -0.440841,-0.292709 -0.440841,-0.292709 v 0 c -0.905057,-0.149121 -1.815703,-0.267586 -2.715173,-0.447368 -4.109108,-0.821314 -1.95318,-0.937291 -4.992094,-0.45186 -0.426831,0.231775 -0.881497,0.418372 -1.280496,0.69533 -0.373108,0.258982 -0.681191,0.600916 -1.021033,0.902229 -1.12042,0.993389 -2.323393,1.887133 -2.880455,3.335499 -0.670756,1.961203 -0.776965,2.909255 0.417486,4.676481 4.736941,5.733899 13.362704,7.129833 18.113195,12.641466 1.262017,0.739103 2.578711,1.357223 3.896402,1.990447 4.558882,2.428579 9.190813,6.036683 -10.558047,-7.025282 -0.290584,-0.192194 0.611873,0.333417 0.914943,0.505251 0.327406,0.185631 0.658339,0.365815 0.976378,0.567076 0.259056,0.163933 0.502246,0.351689 0.75337,0.527531 1.515747,1.228283 3.043274,2.490187 4.185742,4.08885 0.381992,0.540446 0.748099,1.027136 1.068509,1.60937 0.611495,1.111176 0.935665,2.360097 1.348931,3.55033 0.735632,2.321023 1.293736,4.716026 1.06194,7.169587 -0.08538,0.841864 -0.119023,1.690248 -0.250386,2.526173 -0.182245,1.1597 -0.742265,2.222709 -0.827056,3.402912 0,0 2.987,2.030986 2.987,2.030986 z" />
    <path
       style="fill:#008000;fill-opacity:0.498349;stroke-width:0.264583"
       id="path1284"
       d="m 75.156469,47.862262 c 1.341181,-1.048073 2.580854,-2.215206 3.820456,-3.379002 0,0 -0.436716,-0.298823 -0.436716,-0.298823 v 0 c -1.260424,1.182423 -2.58705,2.281037 -4.050667,3.208346 0,0 0.666927,0.469479 0.666927,0.469479 z" />
    <path
       style="fill:#008000;fill-opacity:0.498349;stroke-width:0.264583"
       id="path1286"
       d="m 75.061428,48.041292 c 3.219212,-1.328422 6.264913,-3.057469 9.214136,-4.900369 1.319376,-1.169916 0.896085,-0.487005 1.400262,-1.961928 0,0 -0.740717,-0.522901 -0.740717,-0.522901 v 0 c -1.98089,0.318326 -1.029851,0.01333 -2.848919,0.927981 -2.747957,1.831586 -5.554385,3.598291 -8.138282,5.658406 0,0 1.11352,0.798811 1.11352,0.798811 z" />
    <path
       style="fill:#008000;fill-opacity:0.498349;stroke-width:0.264583"
       id="path1288"
       d="m 70.40288,52.052389 c 1.902357,-2.43536 4.470469,-4.264073 6.914642,-6.115743 1.899902,-1.56096 1.051732,-0.731375 2.570988,-2.461393 0,0 -0.516173,-0.369337 -0.516173,-0.369337 v 0 c -2.653638,0.823402 -1.386078,0.28711 -3.80552,1.602161 -2.562471,1.839486 -4.916133,3.708087 -6.230001,6.664433 0,0 1.066064,0.679879 1.066064,0.679879 z" />
    <path
       style="fill:#008000;fill-opacity:0.498349;stroke-width:0.264583"
       id="path1290"
       d="m 69.843345,55.20406 c 0.83358,-1.001852 1.668013,-2.04493 2.698959,-2.858865 0.299394,-0.236373 0.624252,-0.438573 0.936376,-0.65786 2.262722,-1.658226 4.778015,-2.909001 7.238659,-4.237024 2.12698,-1.118587 4.116903,-2.466292 6.072703,-3.85658 0.164767,-0.18538 0.427665,-0.317241 0.494297,-0.556141 0.221777,-0.795152 -0.790887,-1.588347 -1.128601,-1.993921 0,0 -2.214451,-1.543423 -2.214451,-1.543423 v 0 c -0.909738,-0.370078 -1.735529,-0.91227 -2.759919,-0.752261 -0.278345,0.04348 -0.510292,0.23889 -0.765437,0.358333 -1.885789,1.353979 -3.759444,2.723066 -5.584071,4.158832 -2.112645,1.627217 -4.272005,3.228904 -6.110595,5.171046 -1.050395,1.353299 -2.099735,2.711244 -2.629931,4.36394 0,0 3.752011,2.403924 3.752011,2.403924 z" />
    <path
       style="fill:#008000;fill-opacity:0.498349;stroke-width:0.264583"
       id="path1292"
       d="m 69.077744,52.9708 c 1.250405,-0.869471 2.724875,-1.359866 4.028535,-2.122964 0.637778,-0.373327 1.205521,-0.856308 1.829578,-1.252149 1.394833,-0.884742 2.840191,-1.687245 4.2545,-2.540505 3.372784,-2.071817 6.748319,-4.139488 10.070758,-6.291627 0.580316,-0.307327 1.297403,-1.231435 2.068018,-1.079744 0.33329,0.06561 0.778277,0.33441 1.072076,0.493684 0.117147,0.04204 0.453255,0.197691 0.351441,0.126105 -7.671181,-5.393557 -5.1088,-6.35449 -9.425318,-3.635102 -2.886385,1.83034 -5.755262,3.69013 -8.586812,5.604166 -2.644727,1.671608 -4.856056,3.904922 -7.204995,5.946354 -0.343411,0.236389 -0.730467,0.41942 -1.03023,0.709165 -0.250362,0.241994 -0.377396,0.586547 -0.593082,0.859902 -0.0647,0.082 -1.154162,1.259038 -1.243798,1.364548 -0.447305,0.526534 -0.630272,0.813554 -1.024924,1.374871 -0.860846,1.23132 -1.263952,2.622581 -1.445737,4.095297 -0.03993,0.202705 -0.124923,0.401579 -0.119792,0.608118 0.006,0.243094 0.09942,0.476086 0.152622,0.713365 0.204666,0.912773 0.493564,1.678884 0.951584,2.494555 0.755881,1.252048 1.867774,2.180481 3.036332,3.02786 3.912812,3.094135 5.657729,3.820443 9.444628,5.310666 1.2651,0.533577 2.534713,1.054396 3.728003,1.736283 1.956165,1.215216 1.554445,0.970061 -3.75157,-2.427941 -0.218755,-0.140091 0.434213,0.285282 0.649838,0.430147 1.038715,0.697846 2.035302,1.305308 3.137667,1.926079 1.560449,0.977656 0.883682,0.495829 2.059951,1.4029 0,0 0.479655,0.223491 0.479655,0.223491 v 0 c -0.307036,-0.426622 -0.38336,-0.277228 -0.07051,-0.498324 0.199715,0.02484 0.470553,0.229335 0.599146,0.07452 0.108429,-0.130542 -0.245613,-0.234563 -0.375412,-0.343887 -0.157906,-0.132995 -0.323392,-0.256751 -0.48709,-0.38255 -2.101726,-1.615101 -4.371586,-3.005196 -6.667521,-4.327438 -1.323822,-0.68308 -2.680081,-1.301226 -4.036055,-1.917311 -0.742537,-0.314063 -1.486696,-0.620493 -2.212184,-0.973023 -2.107284,-1.02398 -5.344218,-3.36844 3.63274,2.512705 -1.115764,-0.713666 -2.160717,-1.55508 -2.930017,-2.647291 -0.418978,-0.661009 -0.869307,-1.396455 -0.980972,-2.188154 -0.02416,-0.17126 0.0074,-0.346766 -0.01098,-0.518748 -0.02244,-0.210637 -0.07399,-0.41715 -0.110979,-0.625723 0.230065,-1.308013 0.750906,-2.517334 1.591574,-3.557434 0.696362,-0.795788 1.596099,-1.888289 2.386412,-2.559259 0.276514,-0.234755 0.625136,-0.382448 0.878859,-0.641665 0.2677,-0.2735 0.443444,-0.623872 0.665167,-0.93581 2.209573,-2.176344 4.737074,-3.971237 7.266144,-5.753976 2.93184,-1.920118 5.978202,-3.642802 9.169932,-5.098391 0.540707,-0.254267 1.074912,-0.522261 1.616479,-0.77469 0.165688,-0.07723 0.33655,-0.142872 0.503516,-0.217294 0.100856,-0.04496 0.386887,-0.07282 0.299863,-0.140795 -5.992903,-4.68094 -9.696313,-6.27666 -6.674618,-4.951717 0.144706,0.14882 0.566002,0.54446 0.63527,0.761989 0.140386,0.44086 -1.376492,1.248228 -1.588981,1.447583 -2.981823,2.368257 -5.944735,4.760815 -8.997537,7.038113 -1.235875,0.972605 -2.436517,1.990026 -3.685974,2.945119 -0.583661,0.446154 -1.234115,0.805212 -1.791198,1.284137 -0.98393,0.845889 -1.871937,2.072126 -2.783607,3.019097 0,0 1.269606,0.872691 1.269606,0.872691 z" />
    <path
       style="fill:#008000;fill-opacity:0.498349;stroke-width:0.264583"
       id="path1294"
       d="m 80.305898,69.734276 c 0.556239,0.701315 1.193856,1.349147 1.708719,2.082966 0.172342,0.245632 0.278916,0.534678 0.461005,0.773171 1.130747,1.265073 0.626994,0.632714 1.530035,1.881971 1.001141,1.452657 1.893956,2.987971 2.571882,4.618061 0.503039,1.504294 0.157782,3.01875 -0.268613,4.494077 -0.542181,1.57642 -1.455483,2.987884 -2.383702,4.360273 -0.813359,1.207561 -1.871319,2.196827 -3.039078,3.052077 -1.212946,0.818534 -2.50388,1.508972 -3.859901,2.055871 -1.743223,0.685429 -3.597367,0.81521 -5.440505,0.99913 -1.270871,0.0447 -2.560058,0.18302 -3.829317,0.01804 -0.8983,-0.11675 -1.467821,-0.305591 -2.339756,-0.544475 C 64.358765,93.198867 63.29949,92.860412 62.307885,92.36 61.9551,92.181967 61.611012,91.986374 61.273411,91.780999 c -0.303045,-0.184351 -1.188608,-0.77447 -0.886055,-0.58932 1.258089,0.769901 2.502093,1.562577 3.753139,2.343862 -0.664766,-0.722204 -1.392868,-1.509879 -1.785917,-2.427465 -0.973058,-2.271649 0.999715,1.541108 -0.564607,-1.36472 -0.283427,-0.791779 -0.03725,-1.646616 -0.473647,-2.401642 -0.322037,-0.557167 -0.763638,-0.929597 -1.215064,-1.377601 -0.468255,-0.319201 -0.936506,-0.638405 -1.404761,-0.957606 0,0 -2.241811,-1.12205 -2.241811,-1.12205 v 0 c -0.335939,-0.100002 -0.671881,-0.200004 -1.00782,-0.300006 -0.191994,0.05129 -0.461684,0.05705 -0.512828,0.326842 -0.14791,0.780283 0.781436,2.002555 0.956133,2.754138 0.05505,0.233598 0.06337,0.483447 0.165139,0.700799 0.147744,0.315543 0.385025,0.580848 0.572471,0.874549 0.70856,1.110197 1.444914,2.193573 2.499641,3.015083 3.371119,2.23937 5.193381,4.207338 8.985742,4.488511 2.781588,-0.263404 -1.348759,0.148502 1.47983,-0.204073 1.133226,-0.141256 2.293006,-0.105093 3.407156,-0.392518 0.602549,-0.142864 0.992084,-0.21024 1.566913,-0.444942 0.984988,-0.402169 1.931408,-0.918585 2.923368,-1.308486 1.319188,-0.6164 2.626839,-1.264589 3.828793,-2.093423 1.171046,-0.860692 2.232747,-1.854552 3.049254,-3.067116 0.931262,-1.376995 1.846945,-2.793259 2.392521,-4.374269 0.41071,-1.414285 0.72498,-2.927506 0.523658,-4.399026 -0.560551,-1.649047 -1.484354,-3.140517 -2.449634,-4.581636 -0.215947,-0.298251 -0.443439,-0.588478 -0.647843,-0.894757 -0.171735,-0.257329 -0.290422,-0.549804 -0.479597,-0.794599 -0.271616,-0.351478 -0.608748,-0.647558 -0.896426,-0.986015 -0.586045,-0.689483 -1.08145,-1.458643 -1.726584,-2.099175 0,0 -0.778677,-0.370076 -0.778677,-0.370076 z" />
    <path
       style="fill:#008000;fill-opacity:0.498349;stroke-width:0.264583"
       id="path1296"
       d="m 56.992382,83.253844 c 0.522906,1.818282 1.935652,3.278539 3.142988,4.68078 1.386938,1.482413 2.84186,2.92067 4.493146,4.111932 0.555977,0.40109 1.138796,0.763598 1.708192,1.145397 0,0 4.461698,2.05096 4.461698,2.05096 v 0 c -0.362265,-0.801661 -0.105571,-0.393462 -1.107932,-1.272614 -1.21081,-1.061979 -2.477355,-2.06317 -3.608933,-3.213356 -1.82446,-1.818029 -3.616833,-3.667599 -5.295397,-5.622645 0,0 -3.793762,-1.880454 -3.793762,-1.880454 z" />
  </g>
</svg>
