<?xml version="1.0" encoding="UTF-8" standalone="no"?>
<!-- Created with Inkscape (http://www.inkscape.org/) -->

<svg
   width="512"
   height="512"
   viewBox="0 0 135.46666 135.46667"
   version="1.1"
   id="svg5"
   inkscape:version="1.2.2 (732a01da63, 2022-12-09, custom)"
   sodipodi:docname="ico.svg"
   xmlns:inkscape="http://www.inkscape.org/namespaces/inkscape"
   xmlns:sodipodi="http://sodipodi.sourceforge.net/DTD/sodipodi-0.dtd"
   xmlns="http://www.w3.org/2000/svg"
   xmlns:svg="http://www.w3.org/2000/svg">
  <sodipodi:namedview
     id="namedview7"
     pagecolor="#505050"
     bordercolor="#eeeeee"
     borderopacity="1"
     inkscape:showpageshadow="0"
     inkscape:pageopacity="0"
     inkscape:pagecheckerboard="0"
     inkscape:deskcolor="#505050"
     inkscape:document-units="mm"
     showgrid="false"
     inkscape:zoom="0.70199214"
     inkscape:cx="398.1526"
     inkscape:cy="448.01071"
     inkscape:window-width="1846"
     inkscape:window-height="1016"
     inkscape:window-x="0"
     inkscape:window-y="0"
     inkscape:window-maximized="1"
     inkscape:current-layer="layer1" />
  <defs
     id="defs2" />
  <g
     inkscape:label="Layer 1"
     inkscape:groupmode="layer"
     id="layer1">
    <ellipse
       style="fill:#ffcc00;fill-opacity:0.498349;stroke-width:0.263716"
       id="path111"
       cx="67.428925"
       cy="67.405357"
       rx="66.485207"
       ry="66.667763" />
    <path
       style="fill:#000000;fill-opacity:0.498349;stroke-width:0.264583"
       id="path319"
       d="m 16.456899,13.356406 c -0.01983,1.790244 0.07734,3.572627 0.285254,5.350136 0.386205,2.345803 0.902707,4.665289 1.270491,7.014399 0.393916,2.610131 0.507052,5.246964 0.52556,7.882819 -0.102393,3.04287 -0.524764,6.062636 -0.834524,9.088798 -0.217238,2.7164 -0.673561,5.400569 -1.140391,8.082213 -0.290701,1.579219 -0.475731,3.175246 -0.673955,4.767977 -0.0661,0.621805 -0.13626,1.246016 -0.14694,1.871218 0.0053,0.247843 0.0375,0.493681 0.019,0.741516 -0.111921,1.220576 -0.603224,0.190251 2.830133,1.528112 0.02269,0.0088 0.181613,-0.227312 0.285306,-0.375957 0.10408,-0.273119 0.343587,-0.459695 0.479647,-0.711187 0.09612,-0.17767 0.145895,-0.376933 0.228321,-0.561356 0.322805,-0.722257 0.666361,-1.434867 0.984407,-2.159884 0.840928,-1.829511 1.651859,-3.669471 2.371064,-5.550468 0.647958,-1.741448 1.16072,-3.532267 1.431333,-5.371285 0.226442,-1.448991 0.236454,-2.917876 0.29239,-4.379841 0.03165,-1.361692 0.417542,-2.622688 0.97632,-3.850643 0.674696,-1.395854 1.632817,-2.613409 2.648018,-3.773628 1.040699,-1.156949 2.27425,-2.108411 3.558651,-2.976295 0.662273,-0.442746 1.372476,-0.833387 2.167234,-0.956268 0.885505,0.209045 3.203617,1.447067 -2.011894,-1.197244 -0.109467,-0.0555 0.188079,0.160147 0.264287,0.256346 0.26948,0.340183 0.324842,0.561115 0.498316,0.972238 0.68222,2.249128 0.541202,4.614225 0.392395,6.926768 -0.321852,3.161218 -0.701503,6.317406 -1.118885,9.467556 -0.399561,2.722176 -0.632677,5.461344 -0.784429,8.207071 -0.02384,1.393872 -0.203351,2.790227 -0.139486,4.185065 0.735732,0.628703 0.324059,0.34126 1.250191,0.840182 0,0 0.49862,0.262464 0.49862,0.262464 v 0 c 0.889855,0.415766 0.464323,0.296749 1.25471,0.427638 0.06751,-1.413166 -0.07999,-2.83164 -0.0071,-4.245729 0.06195,-2.766843 0.200861,-5.534538 0.589727,-8.277463 0.387143,-3.165269 0.738873,-6.33544 1.0824,-9.505651 0.177149,-2.329609 0.350319,-4.7083 -0.241525,-6.997276 -0.6037,-1.796122 -1.838251,-3.148627 -4.093181,-3.118271 -0.836218,0.16496 -1.58296,0.548375 -2.273565,1.044564 -1.304012,0.887487 -2.541547,1.870213 -3.606339,3.040658 -1.047221,1.175237 -2.015317,2.422639 -2.723037,3.837144 -0.588748,1.253349 -1.009799,2.553102 -1.052288,3.951218 -0.07883,1.452819 -0.0555,2.913044 -0.258589,4.357788 -0.302611,1.814505 -0.702955,3.611843 -1.354754,5.33731 -0.712391,1.876272 -1.530985,3.70753 -2.375113,5.527866 -0.320281,0.704278 -0.611496,1.449371 -1.016827,2.111324 -0.10377,0.169469 -0.246113,0.313666 -0.346081,0.485405 -0.08042,0.138147 -0.128141,0.292888 -0.192211,0.439335 -0.06319,0.101463 -0.126376,0.202928 -0.189564,0.30439 -0.04202,0.06669 -0.08287,0.134115 -0.126048,0.200054 -0.02721,0.04155 -0.126516,0.09501 -0.08504,0.122328 0.844645,0.556429 1.741877,1.028599 2.612815,1.542899 -0.07614,-0.0037 -0.10947,4.5e-5 -0.131305,-0.08201 -0.05061,-0.254995 -0.07696,-0.512839 -0.103413,-0.771303 -0.05446,-0.629737 0.01602,-1.260909 0.03313,-1.891615 0.09346,-1.619374 0.280771,-3.2307 0.504345,-4.836985 0.40078,-2.71925 0.774864,-5.442733 0.975132,-8.185676 0.289304,-3.065418 0.695429,-6.136151 0.640986,-9.219922 -0.147987,-2.699359 -0.404629,-5.395368 -0.833839,-8.065487 -0.452645,-2.391951 -1.076762,-4.745213 -1.531774,-7.136866 -0.29133,-1.787666 -0.47466,-3.588946 -0.429123,-5.403169 0,0 -1.128925,-0.573317 -1.128925,-0.573317 z" />
    <path
       style="fill:#000000;fill-opacity:0.498349;stroke-width:0.264583"
       id="path321"
       d="m 46.502269,15.23518 c 0.523656,2.137083 0.680572,4.340983 0.797081,6.531154 0.04402,1.847789 -0.0066,3.71122 -0.323731,5.537158 -0.119224,0.686493 -0.336216,1.35346 -0.458189,2.039469 -1.060913,5.966883 0.552333,-1.681703 -0.753163,4.279341 -0.96737,3.815239 -1.827197,7.655068 -2.15237,11.582289 -0.146989,2.274718 -0.04109,4.415324 0.939589,6.497735 3.256399,3.938019 5.361715,3.304395 8.981035,1.879979 1.347869,-0.574307 2.692117,-1.157745 4.047003,-1.715466 0.887637,-0.365382 1.772219,-0.670277 2.618531,-1.123352 -0.05732,-0.285528 -0.114652,-0.571058 -0.171977,-0.856586 0,0 -1.869485,-1.227383 -1.869485,-1.227383 v 0 c -0.470945,-0.07354 -0.94189,-0.147074 -1.412835,-0.22061 -2.300256,0.755266 -4.421312,1.979956 -6.703097,2.791415 -1.110451,0.38807 -2.288929,0.893778 -3.495979,0.852993 -0.23467,-0.0079 -0.881372,-0.269738 -0.692185,-0.130667 0.975342,0.716965 2.064116,1.265211 3.096173,1.897816 -0.169513,-0.137612 -0.339024,-0.275222 -0.508534,-0.412832 -0.61028,-0.915937 -0.71891,-1.354783 -0.956451,-2.431028 -0.29275,-1.326383 -0.517511,-2.638589 -0.415798,-4.009181 0.252574,-3.976463 0.95467,-7.888883 1.634266,-11.810902 0.108524,-0.739834 0.210915,-1.480593 0.325569,-2.219503 0.110162,-0.709977 0.288325,-1.411086 0.348856,-2.127006 0.06407,-0.757806 0.01609,-1.520936 0.02387,-2.281407 0.01984,-1.93344 0.0254,-3.866066 -0.11684,-5.796215 -0.151461,-2.258213 -0.236988,-4.5743 -1.041374,-6.716084 0,0 -1.739974,-0.811127 -1.739974,-0.811127 z" />
    <path
       style="fill:#000000;fill-opacity:0.498349;stroke-width:0.264583"
       id="path323"
       d="m 37.400949,32.086248 c 2.0545,0.141171 4.084172,0.506402 6.126065,0.765135 3.285035,0.354179 6.582994,0.5754 9.878451,0.807681 0.85172,-0.07564 1.704258,0.194775 2.55597,0.142512 0.199097,-0.01222 0.382426,-0.113604 0.573641,-0.170405 0,0 -2.276533,-1.66285 -2.276533,-1.66285 v 0 c -0.363752,-0.0709 -0.722731,-0.173591 -1.091258,-0.212696 -0.802392,-0.08514 -1.618951,0.06087 -2.420292,-0.04373 -2.948668,-0.0097 -5.897851,0.04377 -8.84554,-0.059 -1.589989,-0.0028 -3.172904,0.05751 -4.752834,0.250629 0,0 0.25233,0.182721 0.25233,0.182721 z" />
    <path
       style="fill:#000000;fill-opacity:0.498349;stroke-width:0.264583"
       id="path325"
       d="m 64.037918,23.639531 c -0.269676,2.58608 0.311587,5.167379 0.773176,7.698618 0.610087,3.222247 1.080749,6.467541 1.564696,9.710259 0.356841,1.961938 0.634463,3.93252 0.801327,5.919221 0.01842,0.709888 0.173586,1.536472 -0.124632,2.214732 -0.100824,0.229311 -0.265239,0.425055 -0.394202,0.639805 -0.126347,0.234227 -0.262192,0.508751 -0.501116,0.653478 -0.05689,0.03446 -0.121989,0.07331 -0.188148,0.06646 -0.05488,-0.0057 -0.1818,-0.123807 -0.132204,-0.09962 1.575522,0.768252 3.141752,1.555411 4.712629,2.333117 -0.313447,-2.632385 0.533471,-5.288222 1.19126,-7.809979 1.197049,-4.426558 2.340438,-8.866759 3.462567,-13.31292 0.611675,-2.621873 1.266778,-5.239453 2.273787,-7.740692 0.714163,-1.290524 1.49578,-1.005563 2.628437,-0.40155 -1.326846,-0.734164 -2.608535,-1.556635 -3.980537,-2.20249 -0.30843,-0.145191 0.529418,0.433499 0.758645,0.685816 0.271611,0.298966 0.526029,0.617313 0.737754,0.961297 0.891664,1.448663 1.221816,3.067636 1.584502,4.702254 0.653785,3.693393 0.537363,7.458104 0.48523,11.191455 0.03106,1.641215 -0.0278,3.290427 0.104074,4.928602 1.705088,0.73492 3.342391,1.653088 5.115269,2.20476 0.190208,0.05919 0.04519,-0.395976 0.05886,-0.594712 0.01791,-0.260228 0.02275,-0.521192 0.03584,-0.781706 0.06979,-1.388716 0.218324,-2.751953 0.393544,-4.131643 0.520787,-3.415713 1.260695,-6.844356 2.772839,-9.97458 0.298619,-0.618165 0.653343,-1.20762 0.980016,-1.811428 1.314358,-1.976477 2.940098,-4.321505 4.992307,-5.620657 0.22262,-0.140931 0.472384,-0.23354 0.708575,-0.35031 0.572013,-0.08212 0.720072,-0.184785 1.273881,0.05551 0.233278,0.101215 0.873033,0.520934 0.647833,0.402835 -1.347695,-0.706754 -2.613919,-1.580002 -4.016833,-2.169595 -0.322061,-0.13535 0.494787,0.496727 0.703284,0.777033 0.235839,0.317064 0.416195,0.671847 0.624295,1.007771 1.369258,2.918847 1.449747,6.200005 1.637061,9.362268 0.126154,3.526565 0.531273,7.017644 1.327561,10.454071 0.31369,1.277485 0.676674,2.542926 1.083521,3.793818 0.08381,0.257689 0.07329,0.575297 0.262332,0.769438 0.439743,0.451596 1.03101,0.725442 1.546516,1.088165 0,0 2.351806,1.07225 2.351806,1.07225 v 0 c 0.374,0.05795 0.81891,0.400503 1.12201,0.173863 0.22357,-0.167164 -0.21936,-0.513556 -0.31893,-0.774345 -0.47356,-1.240364 -0.86257,-2.512298 -1.20026,-3.795766 C 101.04943,41.529699 100.6099,38.06034 100.494,34.551602 100.3323,31.343717 100.27969,28.040741 99.0738,25.016086 97.387078,21.77271 96.998231,22.375668 92.436761,19.722924 91.70953,19.3 90.951398,19.39654 90.212808,19.694784 c -2.437876,1.514949 -4.124711,3.991503 -5.650436,6.361888 -0.905248,1.689309 -1.155562,2.029013 -1.845334,3.83428 -0.99468,2.603278 -1.556326,5.348261 -2.059257,8.08015 -0.225314,1.359744 -0.451572,2.711604 -0.580316,4.084323 -0.02318,0.247073 -0.03744,0.494935 -0.06104,0.741968 -0.01627,0.170416 -0.199094,0.412409 -0.0586,0.51022 1.567895,1.091539 3.298262,1.92885 4.947394,2.893275 -0.223457,-0.385115 -0.21577,-0.893572 -0.25082,-1.323512 -0.09716,-1.19175 -0.144904,-2.387225 -0.167944,-3.582506 -0.01844,-3.773355 0.08733,-7.570542 -0.48092,-11.313271 -0.388604,-2.051865 -0.746784,-4.177749 -2.044795,-5.885866 -1.480857,-1.948733 -4.250928,-2.854887 -6.136421,-3.96112 -0.23047,-0.06989 -0.453863,-0.170022 -0.691411,-0.209666 -1.066433,-0.177972 -1.867054,0.471453 -2.316062,1.377983 -1.063895,2.51775 -1.478902,5.256286 -2.183797,7.883667 -1.019966,4.465156 -2.151938,8.905703 -3.474709,13.291526 -0.708504,2.593663 -1.541719,5.228302 -1.577782,7.938119 6.031193,3.724617 4.197559,4.543407 5.310327,1.72629 0.13524,-1.147958 -0.268401,-2.380247 -0.361291,-3.527845 -0.429826,-2.097733 -1.075264,-4.145333 -1.465405,-6.25274 -0.623615,-3.305085 -1.207992,-6.61848 -1.93829,-9.902406 -0.578482,-2.571036 -1.297249,-5.1713 -1.210979,-7.828564 0,0 -1.877005,-0.991446 -1.877005,-0.991446 z" />
    <path
       style="fill:#000000;fill-opacity:0.498349;stroke-width:0.264583"
       id="path327"
       d="m 107.45761,7.0985892 c -0.3502,2.0103883 -0.35607,4.0551968 -0.3215,6.0886248 -0.0269,1.245283 0.11466,2.495856 0.0618,3.740923 -0.0164,0.387486 -0.10188,0.770297 -0.11345,1.157958 0.0556,1.630773 0.0656,0.822572 -0.0264,2.424647 -0.25219,2.518359 -0.68091,5.016715 -1.01054,7.526545 -0.078,0.398851 -0.18503,0.793112 -0.23399,1.19656 -0.05,0.411718 -0.0313,0.829071 -0.062,1.242671 -0.1231,1.657778 -0.11964,0.668499 -0.20282,2.320795 -0.0515,1.023496 -0.027,1.247828 -0.002,2.267815 0.12135,2.087706 0.63764,4.106754 1.39152,6.048338 0.38778,0.801841 0.79088,1.773415 1.61518,2.238058 5.37634,3.030566 3.36862,2.962806 6.08119,2.898507 1.52053,-0.183464 2.84826,-0.911024 4.09637,-1.752454 1.07374,-0.734491 2.03877,-1.609728 2.95305,-2.531248 0.83123,-0.820854 1.46624,-1.798653 2.11522,-2.761559 0.35126,-0.549407 0.71242,-1.090663 1.13201,-1.59035 0.23758,-0.313531 0.50766,-0.597387 0.78043,-0.880014 0.28298,-0.295807 0.59599,-0.564018 0.82718,-0.904045 -0.30451,-0.243514 -0.60902,-0.487029 -0.91352,-0.730541 0,0 -2.96676,-1.65301 -2.96676,-1.65301 v 0 c -0.33597,-0.162613 -0.67195,-0.325224 -1.00793,-0.487837 -0.21361,0.311428 -0.51009,0.554866 -0.76662,0.82916 -0.28394,0.294806 -0.56677,0.591447 -0.80563,0.925004 -0.4065,0.529497 -0.76723,1.089491 -1.11111,1.661493 -0.6148,0.940192 -1.22498,1.890668 -2.03501,2.679436 -0.89734,0.887904 -1.83853,1.734344 -2.88641,2.443475 -1.17908,0.775716 -2.44609,1.448329 -3.8957,1.450488 -2.25173,-0.365371 -0.69181,-0.190863 3.59898,2.434677 0.17169,0.105058 -0.3693,-0.166026 -0.53441,-0.281154 -0.59288,-0.413398 -0.93904,-1.047382 -1.25915,-1.674247 -0.82239,-1.878456 -1.36948,-3.857437 -1.51487,-5.910714 -0.18084,-1.622245 -0.41743,-3.260958 -0.49418,-4.891948 -0.02,-0.424225 0.0139,-0.850117 -0.0119,-1.274029 -0.0283,-0.46482 -0.10011,-0.925965 -0.15017,-1.388946 -0.10584,-2.750654 -0.24778,-5.499494 -0.3677,-8.249165 -0.0459,-0.835663 -0.018,-1.676478 -0.10965,-2.508364 -0.0497,-0.451407 -0.17735,-0.891164 -0.2441,-1.34037 -0.19256,-1.295825 -0.26076,-2.609667 -0.40706,-3.910642 -0.15167,-2.085289 -0.22306,-4.1697324 -0.0637,-6.2579701 0,0 -1.13491,-0.5965677 -1.13491,-0.5965677 z" />
    <path
       style="fill:#ff0000;fill-opacity:0.498349;stroke-width:0.264583"
       id="path427"
       d="m 32.499607,75.541943 c -1.303542,-0.795708 -2.716324,-1.31886 -4.182587,-1.717857 -2.190271,-0.61989 -4.432314,-0.686671 -6.685494,-0.528759 -2.247865,0.22707 -4.320495,1.030136 -6.293876,2.087271 -1.844813,1.036841 -3.247537,2.554007 -4.341325,4.339865 -0.90774,1.697845 -1.1342457,3.619587 -1.1894978,5.515176 -0.045796,1.886609 0.1806897,3.761632 0.5282298,5.611942 0.321103,1.748391 0.931483,3.415861 1.641777,5.038476 0.832841,1.672998 1.660774,3.367252 2.765879,4.878123 0.508051,0.64587 0.668244,0.89652 1.265686,1.46696 1.933318,1.84593 5.748292,3.66068 7.587937,4.707 1.605512,0.83266 3.337001,1.2951 5.109259,1.5943 1.600595,0.2823 3.18625,0.0185 4.772528,-0.1962 1.372013,-0.61346 2.73095,-1.21516 3.970189,-2.07652 0.356881,-0.3591 0.863656,-0.4894 1.258512,-0.78778 0.192685,-0.1456 0.337579,-0.34576 0.514792,-0.50984 0.599125,-0.55475 1.220764,-1.07438 1.806892,-1.64451 1.322189,-1.24728 2.470947,-2.65275 3.483793,-4.158105 0.617347,-0.921525 1.101431,-1.924394 1.539134,-2.941304 0.07187,-0.257628 0.33782,-0.49838 0.32539,-0.778243 -1.265558,-0.862116 -0.567635,-0.423225 -2.109893,-1.290685 0,0 -0.671068,-0.293957 -0.671068,-0.293957 v 0 c -1.457796,-0.723025 -0.784442,-0.353608 -2.029616,-1.090663 -0.221179,0.115813 -0.181253,0.588335 -0.326753,0.761764 -0.387787,1.003636 -0.809569,1.992297 -1.389033,2.90417 -0.966767,1.4932 -2.095299,2.851174 -3.387032,4.077523 -0.573913,0.54644 -1.143347,1.12885 -1.793984,1.58676 -0.209563,0.14749 -0.450852,0.24757 -0.655052,0.4024 -0.183645,0.13923 -0.334862,0.31672 -0.502293,0.47508 -0.186272,0.13405 -0.372544,0.2681 -0.558816,0.40215 -1.263769,0.7679 -2.545226,1.59945 -4.040198,1.80718 -0.203668,0.0796 -0.399397,0.18369 -0.611002,0.23885 -1.201225,0.31311 -2.515887,0.13061 -3.724545,10e-4 -1.718589,-0.31798 -3.391284,-0.82156 -4.934384,-1.66102 6.87161,4.0435 3.125267,1.96531 1.745465,0.98133 -0.799881,-0.57042 -1.524369,-1.23475 -2.127156,-2.01272 -1.044735,-1.56935 -2.117641,-3.122177 -2.906565,-4.844273 -0.757853,-1.582259 -1.389773,-3.224446 -1.727895,-4.952289 -0.360891,-1.825656 -0.615427,-3.660711 -0.600445,-5.527648 0.07835,-1.819653 0.20373,-3.657044 1.081783,-5.296675 1.046479,-1.717411 2.408298,-3.15304 4.18147,-4.142574 1.905153,-1.015939 3.912629,-1.80218 6.082871,-2.003668 1.921428,-0.204031 3.878435,-0.239284 5.794063,0.04081 1.133372,0.263599 2.236806,0.62217 3.296015,1.108231 0,0 -1.963155,-1.571027 -1.963155,-1.571027 z" />
    <path
       style="fill:#ff0000;fill-opacity:0.498349;stroke-width:0.264583"
       id="path429"
       d="m 55.289653,78.462533 c -1.47469,-0.541803 -2.652355,-0.627025 -4.177871,-0.290941 -1.897187,0.55236 -3.116374,1.755743 -4.243269,3.313814 -1.262546,1.945737 -1.771361,4.243329 -2.134952,6.502836 -0.190021,1.470022 -0.312391,3.014932 0.252773,4.426836 0.292459,0.730634 0.716441,1.305264 1.144383,1.955393 2.382534,2.340777 5.291119,4.343487 8.493244,5.372346 0.449739,0.144502 0.915935,0.231613 1.373902,0.347423 2.652348,0.3551 5.239068,-0.366396 7.380301,-1.972772 0.445426,-0.334166 0.837575,-0.733996 1.256363,-1.100994 1.483188,-1.628185 2.339586,-3.63155 2.873105,-5.745335 0.11833,-0.468826 0.240713,-0.939559 0.297569,-1.419733 0.05419,-0.457631 0.02278,-0.921372 0.03418,-1.382059 -0.102862,-1.790729 -0.4811,-3.735639 -1.770039,-5.083691 -0.223967,-0.234238 -0.490802,-0.423357 -0.7362,-0.635034 -3.268279,-2.336422 -6.561013,-3.849135 -10.371892,-4.791136 -0.0911,-0.02011 -1.525855,-0.347154 -1.677646,-0.343429 -0.134046,0.0033 -0.34803,0.04244 -0.361799,0.175816 -0.02484,0.240524 0.182877,0.447696 0.274317,0.671546 0,0 1.345219,1.007685 1.345219,1.007685 v 0 c 1.517591,0.757973 2.985992,1.503907 4.682201,1.750459 0.991613,0.259781 1.976554,0.52011 2.944389,0.860825 0.322797,0.113636 0.646647,0.225694 0.961832,0.358992 0.323234,0.136702 1.247137,0.639714 0.951706,0.450281 -1.071475,-0.687041 -2.190072,-1.297655 -3.285109,-1.946482 0.313992,0.209918 0.644851,0.396576 0.941978,0.629756 1.581586,1.241222 2.267503,3.054012 2.434561,5.012378 -0.03364,0.946759 -0.03138,1.817558 -0.207645,2.756413 -0.388366,2.06856 -1.298059,4.013121 -2.696279,5.585309 -0.39116,0.360051 -0.754256,0.753206 -1.173477,1.080157 -1.981931,1.545706 -4.412147,2.258634 -6.903009,1.93445 -0.423727,-0.107659 -0.855006,-0.18906 -1.271182,-0.322977 -1.174438,-0.377901 -2.49433,-1.182306 0.35883,0.513078 0.403024,0.239479 -0.802687,-0.486072 -1.185608,-0.756537 C 50.720882,97.113293 50.35504,96.836184 50.013,96.532418 49.714896,96.267671 49.456655,95.961183 49.178483,95.675565 48.875106,95.34038 48.540699,95.03086 48.268356,94.670008 c -1.180711,-1.564433 -1.258779,-3.483416 -1.019263,-5.352941 0.306269,-2.248186 0.809498,-4.460158 2.009619,-6.420125 1.046589,-1.472907 2.301581,-2.68332 4.096218,-3.166245 1.252429,-0.255426 2.406859,-0.176506 3.657103,0.05996 0,0 -1.722382,-1.328126 -1.722382,-1.328126 z" />
    <path
       style="fill:#ff0000;fill-opacity:0.498349;stroke-width:0.264583"
       id="path431"
       d="m 80.618049,77.575883 c -1.183011,-0.642562 -2.429809,-1.101818 -3.773035,-1.218549 -1.482323,0.03881 -2.400771,0.713276 -3.309451,1.817287 -0.93154,1.32787 -1.295591,2.841237 -1.379882,4.43438 0.04176,1.8059 0.411724,3.584112 0.795052,5.343004 0.340283,1.747909 0.918888,3.421202 1.807218,4.963255 1.15883,1.734963 2.361631,2.200942 4.715261,2.994279 0.227891,0.07681 1.365634,-0.820679 1.418262,-0.858928 2.240487,-1.843106 3.303881,-4.519244 4.315211,-7.150991 0.792957,-2.380758 1.309807,-4.862245 1.50526,-7.366029 0.115798,-1.483392 0.07328,-2.385613 0.05852,-3.878892 -0.07724,-3.517855 -0.262427,-7.030278 -0.497276,-10.540606 -0.143968,-1.866484 -0.344337,-3.730104 -0.659485,-5.575845 -0.0053,-0.357497 -0.191296,-0.856221 -0.0213,-1.199941 -1.537676,-0.68762 -3.035712,-1.471813 -4.613029,-2.062866 -0.01193,-0.0045 -0.133633,0.415761 -0.167097,0.732837 -0.08525,0.807662 0.04682,1.574859 0.175215,2.370143 0.276886,0.758984 0.223395,1.591583 0.44768,2.36034 0.147511,0.5056 0.392467,0.977622 0.576972,1.470927 0.601226,1.607498 1.180959,3.219157 1.80599,4.818198 1.225674,3.08892 2.49601,6.160368 3.479154,9.336881 0.820074,2.730307 1.156518,5.570625 1.733058,8.356481 0.46822,2.295742 1.158444,4.533648 1.868353,6.763202 0.227488,0.282538 0.435906,1.864495 0.657585,2.126014 0.126912,0.14972 0.310903,0.239649 0.466354,0.359477 0,0 4.34336,1.911146 4.34336,1.911146 v 0 c 0.10069,0.03386 0.232275,0.181665 0.302072,0.101581 0.07077,-0.0812 -0.09453,-0.193794 -0.134545,-0.293798 -0.243735,-0.609172 -0.425784,-1.242542 -0.647417,-1.859473 -0.752629,-2.223932 -1.474931,-4.458118 -1.985706,-6.75286 -0.612354,-2.852484 -1.02638,-5.748631 -1.95671,-8.525544 -1.088859,-3.196397 -2.375443,-6.315276 -3.641953,-9.444604 -0.607562,-1.564651 -1.287907,-3.140451 -1.752708,-4.755999 -0.124259,-0.431895 -0.169283,-0.884185 -0.296199,-1.315307 -0.997225,-3.387487 -0.06423,0.514522 -0.733332,-2.438345 -0.117091,-0.721701 -0.285149,-1.465154 -0.223573,-2.20218 0.01045,-0.125021 0.03855,-0.24815 0.06658,-0.370435 0.01625,-0.07082 0.128942,-0.171495 0.06598,-0.207746 -1.457513,-0.839059 -2.983259,-1.553583 -4.474888,-2.330375 0.440669,-0.164227 0.504812,0.854553 0.605296,1.087016 0.433559,1.863807 0.797451,3.740198 0.937749,5.653048 0.302911,3.51459 0.548465,7.035157 0.60628,10.563603 0.0079,1.31689 0.03777,2.521085 -0.04207,3.835535 -0.150791,2.482562 -0.651218,4.930381 -1.410432,7.296484 -0.954831,2.53796 -2.004375,5.159258 -3.993735,7.077228 -0.222663,0.163565 -0.429464,0.351277 -0.667988,0.490696 -0.163187,0.09539 -0.669639,0.08347 -0.527505,0.208082 0.816247,0.715597 1.851464,1.135054 2.7516,1.741762 0.151916,0.102394 -0.348612,-0.123997 -0.501398,-0.225086 -0.376468,-0.249092 -0.641993,-0.622909 -0.924693,-0.962221 -1.00671,-1.511033 -1.64026,-3.202292 -2.065507,-4.964575 -0.401595,-1.745853 -0.802015,-3.50787 -0.890127,-5.302554 0.03493,-1.533592 0.351433,-3.007466 1.285058,-4.264618 0.804103,-0.994172 1.741458,-1.662295 3.075305,-1.623322 1.208087,0.130792 2.346666,0.530937 3.425248,1.089102 0,0 -1.998631,-1.610299 -1.998632,-1.610299 z" />
    <path
       style="fill:#ff0000;fill-opacity:0.498349;stroke-width:0.264583"
       id="path433"
       d="m 97.419352,75.161115 c 1.107466,2.625934 3.944448,3.823716 6.486428,4.701646 2.75356,0.642879 5.69746,1.021085 8.48574,0.326046 0.40703,-0.10146 0.7943,-0.270105 1.19144,-0.405156 0.28975,-0.192765 0.61166,-0.344279 0.86924,-0.578292 1.36294,-1.238232 0.78232,-3.048331 0.19825,-4.498814 -1.55642,-3.082663 -4.1216,-4.179088 -7.0531,-5.83855 -2.09804,-0.7992 -3.23153,-0.701034 -5.13913,0.434626 -1.49432,1.166506 -2.43891,2.878019 -2.837985,4.721974 -0.09135,0.422069 -0.123901,0.85475 -0.185851,1.282126 -0.0555,2.85029 1.037726,5.537538 1.934206,8.195979 0.90185,2.386409 1.36084,4.901925 2.08083,7.341042 0.14966,0.435395 0.33663,1.097269 0.61226,1.497166 0.12396,0.179845 0.26453,0.36272 0.45252,0.473935 1.78243,1.054449 3.3832,2.704869 5.49659,2.577364 0.3077,-0.01857 0.60795,-0.102359 0.91193,-0.15354 0.89243,-0.33532 2.30774,-0.687131 2.54078,-1.828919 0.0934,-0.457806 -0.0936,-0.929786 -0.14041,-1.394677 0,0 -1.51146,-0.930439 -1.51146,-0.930439 v 0 c -0.58716,0.054 -1.18357,0.04503 -1.7615,0.162015 -1.11213,0.225107 -1.96525,0.995624 -3.07457,1.208516 -0.27165,0.03062 -0.54159,0.09001 -0.81496,0.09187 -1.59059,0.0108 -2.98401,-1.497166 2.54697,1.948889 0.23131,0.144118 -0.48563,-0.257352 -0.69222,-0.43511 -0.6263,-0.538906 -0.69349,-0.847715 -1.0715,-1.576822 -0.93567,-2.494655 -1.61875,-5.073033 -2.55557,-7.567908 -0.93819,-2.618462 -2.09985,-5.264378 -2.07439,-8.093443 0.0511,-0.414663 0.0693,-0.834713 0.15323,-1.243989 0.36274,-1.768311 1.30403,-3.40578 2.75887,-4.482425 1.78031,-1.041519 2.85136,-1.064019 4.77324,-0.299842 -0.58443,-0.355565 -1.16291,-0.721098 -1.75329,-1.066697 -0.30341,-0.177612 0.60416,0.360937 0.89215,0.562603 1.208,0.845899 2.21373,1.908415 2.90853,3.215909 0.57997,1.313125 1.25881,2.986514 0.0509,4.196128 -0.22486,0.225187 -0.51397,0.375399 -0.77096,0.563099 -0.34795,0.150932 -0.68279,0.336667 -1.04385,0.452798 -2.57489,0.828185 -5.42141,0.474771 -7.99555,-0.118444 -0.48573,-0.17078 -0.94925,-0.428167 -1.4572,-0.512344 -0.19984,-0.03312 0.65662,0.474641 0.49476,0.352851 -0.93751,-0.705408 -1.898248,-1.392341 -2.330183,-2.536574 0,0 -1.575215,-0.744593 -1.575215,-0.744593 z" />
    <path
       style="fill:#ff0000;fill-opacity:0.498349;stroke-width:0.264583"
       id="path435"
       d="m 118.78718,58.371562 c 0.11388,1.379323 0.31914,2.753609 0.4812,4.129818 0.25417,2.396061 0.13923,4.804227 -0.11447,7.193507 -0.48856,3.760737 -0.85267,7.536733 -1.33365,11.299563 -0.29475,2.258192 -0.53921,4.523047 -0.85151,6.77895 -0.28146,1.565257 -0.60275,0.574186 4.94223,2.613065 0.18284,0.06723 -0.007,-0.389908 0.003,-0.584441 0.0408,-0.756703 0.12219,-1.227124 0.22613,-1.999649 0.49916,-2.956735 0.67936,-5.950381 0.90857,-8.936125 0.22967,-2.354778 0.23644,-4.728278 0.52787,-7.076696 0.21929,-1.384099 0.2788,-1.42335 1.58025,-1.352439 1.24247,0.198051 2.4509,0.158787 3.68268,-0.07093 0.90394,-0.206131 1.78708,-0.489815 2.68719,-0.710393 0.6692,0.02827 1.32558,0.448752 1.93717,0.714494 0.84687,0.335997 1.74149,0.954487 2.6994,0.838251 0.17421,-0.02114 0.33943,-0.08928 0.50914,-0.133925 1.16742,-0.557233 1.97103,-1.5836 2.6405,-2.656324 -0.73503,-1.363255 -0.25452,-0.655449 -1.55102,-2.044795 0,0 -0.93474,-0.519096 -0.93474,-0.519096 v 0 c -1.69947,-0.330177 -0.9158,-0.282739 -2.34284,-0.242134 -0.57519,0.948142 -1.28755,1.913843 -2.39921,2.240658 -1.08732,0.04346 -2.03341,-0.530338 -3.00686,-0.949451 -0.70184,-0.298575 -1.42919,-0.706777 -2.20383,-0.444048 -0.85868,0.253018 -1.70558,0.555167 -2.59067,0.707588 -1.22731,0.168781 -2.43014,0.07893 -3.66079,-0.0154 -1.49923,0.107204 -1.7803,0.617638 -1.94577,2.071716 -0.24383,2.381139 -0.20751,4.779865 -0.40209,7.165224 -0.21905,2.960161 -0.43047,5.929378 -0.97631,8.85132 -0.72508,4.040267 -1.11324,2.377467 4.56909,5.559735 0.12884,0.07215 -0.0432,-0.699686 0.0632,-0.438473 0.1216,-2.302227 0.34418,-4.597646 0.61271,-6.887117 0.45835,-3.927049 1.10811,-7.903705 0.43755,-11.847449 -0.45009,-2.75699 -0.92953,-5.511295 -1.76916,-8.182227 -0.42207,-1.551434 -0.82826,-3.124049 -1.44778,-4.609226 0,0 -0.97717,-0.463553 -0.97717,-0.463553 z" />
  </g>
</svg>
